<!-- Generated by IcoMoon.io -->
<svg version="1.1" xmlns="http://www.w3.org/2000/svg" width="32" height="32" viewBox="0 0 32 32">
<title>Happy</title>
<path fill="#81007f" d="M10.747 30.363c0-0.021 0.024-0.048 0.053-0.056 0.051-0.016 0.053-0.040 0.053-0.917 0-0.664-0.008-0.907-0.032-0.931s-0.261-0.032-0.907-0.032h-0.875v-1.787h-1.787v-0.875c0-0.645-0.008-0.883-0.032-0.907s-0.261-0.032-0.907-0.032h-0.875v-1.784c0-1.603-0.005-1.784-0.043-1.8-0.024-0.008-0.424-0.016-0.891-0.016h-0.851l-0.003-6.152v-6.155l1.792 0.016-0.008-0.115c-0.003-0.064-0.005-0.891-0.003-1.84 0.005-1.517 0.011-1.728 0.045-1.728 0.021 0 0.040 0.019 0.040 0.040 0 0.035 0.107 0.040 0.861 0.035l0.859-0.008 0.008-0.061c0.005-0.035-0.005-0.080-0.027-0.104-0.027-0.035-0.027-0.045 0-0.053 0.024-0.011 0.032-0.189 0.032-0.784v-0.771h1.28v0.688c0 0.381 0.008 0.781 0.016 0.893l0.019 0.205 0.883 0.005 0.883 0.008 0.027 3.573 0.888 0.008 0.885 0.005v0.691c0 0.821 0.019 1.088 0.075 1.109 0.053 0.021 7.533 0.019 7.589-0.003 0.027-0.011 0.043-0.048 0.043-0.093 0-0.059-0.013-0.077-0.053-0.077-0.029 0-0.053-0.011-0.053-0.027 0-0.013 0.024-0.027 0.053-0.027 0.053 0 0.053-0.019 0.053-0.827 0-0.717 0.005-0.827 0.040-0.827 0.021 0 0.040 0.019 0.040 0.040 0 0.035 0.107 0.040 0.861 0.035l0.859-0.008 0.008-0.061c0.005-0.035-0.005-0.080-0.024-0.101-0.024-0.029-0.024-0.048-0.003-0.069 0.024-0.024 0.032-0.469 0.032-1.693v-1.661h1.787v-0.259c0.003-0.144 0.003-0.547 0-0.896l-0.003-0.632h1.309l0.005 0.888 0.008 0.885 0.888 0.008 0.885 0.005v1.597c0 0.877 0.008 1.685 0.016 1.797l0.019 0.205 0.883 0.005 0.883 0.008v12.267l-0.867 0.008c-0.552 0.003-0.875 0.016-0.893 0.035-0.016 0.016-0.032 0.627-0.040 1.792l-0.013 1.765-1.76 0.027-0.027 1.787-0.885 0.008c-0.683 0.005-0.888 0.013-0.891 0.040-0.003 0.016-0.011 0.416-0.021 0.885l-0.016 0.853-1.76 0.027-0.027 1.947-5.192 0.008c-4.499 0.005-5.195 0-5.195-0.032z"></path>
<path fill="#cb64fc" d="M10.747 30.363c0-0.021 0.024-0.048 0.053-0.056 0.051-0.016 0.053-0.040 0.053-0.917 0-0.664-0.008-0.907-0.032-0.931s-0.261-0.032-0.907-0.032h-0.875v-1.787h-1.787v-0.875c0-0.645-0.008-0.883-0.032-0.907s-0.261-0.032-0.907-0.032h-0.875v-1.784c0-1.963 0.013-1.816-0.163-1.816h-0.077l-0.005-0.805-0.008-0.808-0.747-0.008c-0.555-0.005-0.749-0.013-0.765-0.040-0.024-0.037-0.029-1.629-0.005-1.72l0.016-0.061 1.643 0.003c1.021 0.003 1.645-0.005 1.656-0.021 0.008-0.016 0.011-0.416 0.003-0.891l-0.013-0.861-1.637-0.008c-1.272-0.005-1.645-0.013-1.661-0.040-0.011-0.016-0.021-1.611-0.021-3.539v-3.507l1.792 0.016-0.008-0.115c-0.003-0.064-0.005-0.891-0.003-1.84 0.005-1.517 0.011-1.728 0.045-1.728 0.021 0 0.040 0.019 0.040 0.040 0 0.035 0.107 0.040 0.861 0.035l0.859-0.008 0.008-0.061c0.005-0.035-0.005-0.080-0.027-0.104-0.027-0.035-0.027-0.045 0-0.053 0.024-0.011 0.032-0.189 0.032-0.784v-0.771h1.28v0.688c0 0.381 0.008 0.781 0.016 0.893l0.019 0.205 0.883 0.005 0.883 0.008 0.027 3.573 0.883 0.008 0.885 0.005 0.008 0.883c0.011 0.744 0.016 0.883 0.051 0.904 0.024 0.016 0.435 0.027 0.973 0.027 0.515 0 0.96 0.008 0.995 0.016l0.059 0.016v3.408h3.573v-3.408l0.061-0.016c0.032-0.008 0.475-0.016 0.984-0.016 0.507 0 0.941-0.008 0.965-0.016 0.027-0.011 0.043-0.048 0.043-0.093 0-0.059-0.013-0.077-0.053-0.077-0.029 0-0.053-0.011-0.053-0.027 0-0.013 0.024-0.027 0.053-0.027 0.053 0 0.053-0.019 0.053-0.827 0-0.717 0.005-0.827 0.040-0.827 0.021 0 0.040 0.019 0.040 0.040 0 0.035 0.107 0.040 0.861 0.035l0.859-0.008 0.008-0.061c0.005-0.035-0.005-0.080-0.024-0.101-0.024-0.029-0.024-0.048-0.003-0.069 0.024-0.024 0.032-0.469 0.032-1.693v-1.661h1.787v-0.259c0.003-0.144 0.003-0.547 0-0.896l-0.003-0.632h1.309l0.005 0.888 0.008 0.885 0.888 0.008 0.885 0.005v1.597c0 0.877 0.008 1.685 0.016 1.797l0.019 0.205 0.883 0.005 0.883 0.008 0.008 3.44c0.003 1.893 0 3.48-0.008 3.528l-0.016 0.085h-1.635c-1.28 0-1.64 0.008-1.659 0.035-0.013 0.016-0.021 0.419-0.016 0.893l0.008 0.859h3.299l0.016 0.061c0.021 0.077 0.021 1.613 0 1.691l-0.016 0.061-0.752 0.005-0.749 0.008-0.008 0.808-0.005 0.805h-0.107c-0.056 0-0.112 0.016-0.125 0.035-0.011 0.016-0.027 0.824-0.035 1.792l-0.013 1.76-1.76 0.027-0.027 1.787-0.885 0.008c-0.683 0.005-0.888 0.013-0.891 0.040-0.003 0.016-0.011 0.416-0.021 0.885l-0.016 0.853-1.76 0.027-0.027 1.947-5.192 0.008c-4.499 0.005-5.195 0-5.195-0.032zM15.995 25.901l0.005-0.888h-3.6v0.875c0 0.483 0.008 0.885 0.019 0.893 0.008 0.011 0.816 0.016 1.792 0.013l1.776-0.008 0.008-0.885zM19.595 25.901l0.005-0.888h-1.787v0.875c0 0.483 0.008 0.885 0.019 0.893 0.011 0.011 0.408 0.016 0.885 0.013l0.869-0.008 0.008-0.885zM12.395 24.101l-0.008-0.888h-1.76l-0.013 0.853c-0.008 0.469-0.008 0.869-0.003 0.888 0.005 0.024 0.211 0.032 0.899 0.032h0.891l-0.005-0.885zM17.787 23.288c0-0.936 0.008-1.725 0.016-1.757s-0.003-0.075-0.029-0.099c-0.037-0.037-0.216-0.043-1.715-0.045-0.92 0-1.712 0.008-1.76 0.016l-0.085 0.019 0.005 0.883 0.008 0.883 1.76 0.027 0.008 0.888 0.005 0.885h1.787v-1.699zM21.381 24.101l-0.008-0.888h-1.76l-0.008 0.888-0.005 0.885h1.787l-0.005-0.885zM12.387 17.8v-1.787h-1.76l-0.013 0.872c-0.008 0.477-0.024 0.88-0.035 0.893-0.013 0.011-0.416 0.027-0.893 0.035l-0.872 0.013-0.008 0.853c-0.003 0.469 0 0.869 0.008 0.885 0.008 0.029 0.376 0.035 1.792 0.029l1.781-0.008v-1.787zM23.187 18.707v-0.88l-0.872-0.013c-0.477-0.008-0.88-0.024-0.893-0.035-0.011-0.013-0.027-0.416-0.035-0.893l-0.013-0.872h-1.76l-0.008 1.76c-0.003 0.968 0 1.776 0.008 1.795 0.008 0.027 0.381 0.032 1.792 0.027l1.781-0.008v-0.88zM8.795 9.723c0.003-1.52-0.005-2.677-0.019-2.691-0.021-0.021-1.733-0.029-1.755-0.008-0.005 0.005-0.008 0.792-0.008 1.752 0 1.064-0.011 1.76-0.027 1.784-0.021 0.035-0.16 0.043-0.899 0.053l-0.875 0.013-0.008 0.853c-0.003 0.469 0 0.869 0.008 0.885 0.008 0.029 0.376 0.035 1.792 0.029l1.781-0.008 0.008-2.664zM26.787 11.507v-0.88l-0.875-0.013c-0.739-0.011-0.877-0.019-0.899-0.053-0.016-0.024-0.027-0.736-0.027-1.792 0-1.133-0.008-1.755-0.027-1.76-0.013-0.003-0.413-0.003-0.885 0.005l-0.861 0.013-0.008 2.653c-0.003 1.459 0 2.669 0.008 2.688 0.008 0.027 0.381 0.032 1.792 0.027l1.781-0.008v-0.88z"></path>
</svg>
