<!-- Generated by IcoMoon.io -->
<svg version="1.1" xmlns="http://www.w3.org/2000/svg" width="32" height="32" viewBox="0 0 32 32">
<title>Laugh</title>
<path fill="#800080" d="M10 31v-1h-2v-2h-2v-2h-2v-4h-2v-14h2v-4h2v-2h2v2h2v4h2v2h8v-2h2v-4h2v-2h2v2h2v4h2v14h-2v4h-2v2h-2v2h-2v2h-12v-1z"></path>
<path fill="#c6f" d="M10 31v-1h-2v-2h-2v-2h-2v-6h-2v-2h4v-2h-4v-8h2v-4h2v-2h2v2h2v4h2v2h2v4h4v-4h2v-2h2v-4h2v-2h2v2h2v4h2v8h-4v2h4v2h-2v6h-2v2h-2v2h-2v2h-4v-2h-4v2h-4v-1zM14 29v-1h4v2h2v-2h2v-2h2v-2h-2v2h-4v-4h-4v2h2v2h-6v-2h-2v2h2v2h2v2h2v-1zM10 19v-1h2v-2h-2v2h-2v2h2v-1zM24 19v-1h-2v-2h-2v2h2v2h2v-1zM8 9v-3h-2v4h-2v2h4v-3zM28 11v-1h-2v-4h-2v6h4v-1z"></path>
</svg>
