<svg aria-hidden="true" style="position: absolute; width: 0; height: 0; overflow: hidden;" version="1.1" xmlns="http://www.w3.org/2000/svg" xmlns:xlink="http://www.w3.org/1999/xlink">
<defs>
<symbol id="icon-Angry" viewBox="0 0 32 32">
<path fill="#81007f" style="fill: var(--color1, #81007f)" d="M10.747 30.363c0-0.021 0.024-0.045 0.051-0.056 0.051-0.016 0.053-0.051 0.061-0.875 0.005-0.541-0.003-0.883-0.019-0.925l-0.027-0.067-0.888-0.008-0.885-0.005v-1.787h-1.787v-0.875c0-0.645-0.008-0.883-0.032-0.907s-0.261-0.032-0.907-0.032h-0.875v-1.784c0-1.603-0.005-1.784-0.043-1.8-0.024-0.008-0.424-0.016-0.891-0.016h-0.851l-0.003-6.152v-6.155l1.792 0.016-0.008-0.115c-0.003-0.064-0.005-0.891-0.003-1.84 0.005-1.517 0.011-1.728 0.045-1.728 0.021 0 0.040 0.019 0.040 0.040 0 0.035 0.107 0.040 0.861 0.035l0.859-0.008 0.008-0.061c0.005-0.035-0.005-0.080-0.027-0.104-0.027-0.035-0.027-0.045 0-0.053 0.024-0.011 0.032-0.189 0.032-0.784v-0.771h1.28v0.688c0 0.381 0.008 0.781 0.016 0.893l0.019 0.205 0.883 0.005 0.883 0.008 0.027 3.573 0.888 0.008 0.885 0.005v0.691c0 0.821 0.019 1.088 0.075 1.109 0.053 0.021 7.533 0.019 7.589-0.003 0.027-0.011 0.043-0.048 0.043-0.093 0-0.059-0.013-0.077-0.053-0.077-0.029 0-0.053-0.011-0.053-0.027 0-0.013 0.024-0.027 0.053-0.027 0.053 0 0.053-0.019 0.053-0.827 0-0.717 0.005-0.827 0.040-0.827 0.021 0 0.040 0.019 0.040 0.040 0 0.035 0.107 0.040 0.861 0.035l0.859-0.008 0.008-0.061c0.005-0.035-0.005-0.080-0.024-0.101-0.024-0.029-0.024-0.048-0.003-0.069 0.024-0.024 0.032-0.469 0.032-1.693v-1.661h1.787v-0.259c0.003-0.144 0.003-0.547 0-0.896l-0.003-0.632h1.309l0.005 0.888 0.008 0.885 0.888 0.008 0.885 0.005v1.597c0 0.877 0.008 1.685 0.016 1.797l0.019 0.205 0.883 0.005 0.883 0.008v12.267l-0.867 0.008c-0.552 0.003-0.875 0.016-0.893 0.035-0.016 0.016-0.032 0.627-0.040 1.792l-0.013 1.765-1.76 0.027-0.027 1.787-0.885 0.008c-0.683 0.005-0.888 0.013-0.891 0.040-0.003 0.016-0.011 0.416-0.021 0.885l-0.016 0.853-0.875 0.008c-0.757 0.005-0.877 0.011-0.891 0.048-0.008 0.021-0.016 0.461-0.019 0.979l-0.003 0.939-5.192 0.008c-4.499 0.005-5.195 0-5.195-0.032z"></path>
<path fill="#cb64fc" style="fill: var(--color2, #cb64fc)" d="M10.747 30.363c0-0.021 0.024-0.048 0.053-0.056 0.051-0.016 0.053-0.040 0.053-0.813 0-0.437 0.008-0.813 0.016-0.837 0.013-0.037 0.104-0.043 0.741-0.043 0.528 0 0.733-0.008 0.757-0.032s0.032-0.261 0.032-0.907v-0.875l-0.885 0.005-0.888 0.008-0.008 0.808-0.005 0.805h-1.573v-1.787h-1.787v-0.875c0-0.645-0.008-0.883-0.032-0.907s-0.261-0.032-0.907-0.032h-0.875v-1.784c0-1.963 0.013-1.816-0.163-1.816h-0.077l-0.005-0.805-0.008-0.808-0.747-0.008c-0.555-0.005-0.749-0.013-0.765-0.040-0.024-0.037-0.029-1.629-0.005-1.72l0.016-0.061 1.643 0.003c1.021 0.003 1.645-0.005 1.656-0.021 0.008-0.016 0.011-0.416 0.003-0.891l-0.013-0.861-1.637-0.008c-1.272-0.005-1.645-0.013-1.661-0.040-0.011-0.016-0.021-1.611-0.021-3.539v-3.507l1.792 0.016-0.008-0.115c-0.003-0.064-0.005-0.891-0.003-1.84 0.005-1.517 0.011-1.728 0.045-1.728 0.021 0 0.040 0.019 0.040 0.040 0 0.035 0.107 0.040 0.861 0.035l0.859-0.008 0.008-0.061c0.005-0.035-0.005-0.080-0.027-0.104-0.027-0.035-0.027-0.045 0-0.053 0.024-0.011 0.032-0.189 0.032-0.784v-0.771h1.28v0.688c0 0.381 0.008 0.781 0.016 0.893l0.019 0.205 0.883 0.005 0.883 0.008 0.027 3.573 0.883 0.008 0.885 0.005 0.008 0.883c0.011 0.744 0.016 0.883 0.051 0.904 0.024 0.016 0.435 0.027 0.973 0.027 0.515 0 0.96 0.008 0.995 0.016l0.059 0.016v3.408h3.573v-3.408l0.061-0.016c0.032-0.008 0.475-0.016 0.984-0.016 0.507 0 0.941-0.008 0.965-0.016 0.027-0.011 0.043-0.048 0.043-0.093 0-0.059-0.013-0.077-0.053-0.077-0.029 0-0.053-0.011-0.053-0.027 0-0.013 0.024-0.027 0.053-0.027 0.053 0 0.053-0.019 0.053-0.827 0-0.717 0.005-0.827 0.040-0.827 0.021 0 0.040 0.019 0.040 0.040 0 0.035 0.107 0.040 0.861 0.035l0.859-0.008 0.008-0.061c0.005-0.035-0.005-0.080-0.024-0.101-0.024-0.029-0.024-0.048-0.003-0.069 0.024-0.024 0.032-0.469 0.032-1.693v-1.661h1.787v-0.259c0.003-0.144 0.003-0.547 0-0.896l-0.003-0.632h1.309l0.005 0.888 0.008 0.885 0.888 0.008 0.885 0.005v1.597c0 0.877 0.008 1.685 0.016 1.797l0.019 0.205 0.883 0.005 0.883 0.008 0.008 3.44c0.003 1.893 0 3.48-0.008 3.528l-0.016 0.085h-1.635c-1.28 0-1.64 0.008-1.659 0.035-0.013 0.016-0.021 0.419-0.016 0.893l0.008 0.859h3.299l0.016 0.061c0.021 0.077 0.021 1.613 0 1.691l-0.016 0.061-0.752 0.005-0.749 0.008-0.008 0.808-0.005 0.805h-0.107c-0.056 0-0.112 0.016-0.125 0.035-0.011 0.016-0.027 0.824-0.035 1.792l-0.013 1.76-1.76 0.027-0.027 1.787-0.885 0.008c-0.683 0.005-0.888 0.013-0.891 0.040-0.003 0.016-0.011 0.416-0.021 0.885l-0.016 0.853-0.765 0.008-0.768 0.005-0.005-0.805-0.008-0.808-0.885-0.008-0.888-0.005v0.875c0 0.645 0.008 0.883 0.032 0.907s0.229 0.032 0.76 0.032h0.728l0.013 0.061c0.008 0.032 0.011 0.432 0.008 0.885l-0.008 0.827-5.192 0.008c-4.499 0.005-5.195 0-5.195-0.032zM19.6 25.923c0-0.576-0.011-0.885-0.027-0.896s-0.405-0.016-0.864-0.013c-0.741 0.003-0.843-0.003-0.88-0.043-0.040-0.037-0.043-0.205-0.043-1.792 0.003-1.403-0.003-1.752-0.032-1.768-0.040-0.027-3.331-0.032-3.456-0.008l-0.085 0.019 0.005 0.883 0.008 0.883 1.76 0.027 0.008 0.869c0.005 0.707 0 0.875-0.029 0.901-0.027 0.021-0.539 0.032-1.795 0.035l-1.757 0.008-0.008 0.888-0.005 0.885h7.2v-0.877zM12.387 18.707v-0.88l-0.885-0.008-0.888-0.005v0.875c0 0.483 0.008 0.885 0.019 0.893 0.011 0.011 0.408 0.016 0.885 0.013l0.869-0.008v-0.88zM21.381 18.699l0.005-0.885-0.885 0.005-0.888 0.008-0.008 0.853c-0.003 0.469 0 0.869 0.008 0.888 0.008 0.027 0.197 0.032 0.885 0.027l0.875-0.008 0.008-0.888zM10.608 16.936c0.005-0.619-0.003-0.875-0.024-0.899-0.027-0.032-0.187-0.037-0.901-0.032l-0.869 0.008v1.76l0.827 0.013c0.456 0.008 0.856 0.016 0.893 0.013h0.067l0.008-0.864zM23.187 16.893v-0.88l-0.864-0.008c-0.613-0.005-0.875 0.003-0.899 0.024-0.029 0.024-0.037 0.195-0.037 0.893v0.864l0.901-0.005 0.899-0.008v-0.88zM8.795 9.723c0.003-1.52-0.005-2.677-0.019-2.691-0.021-0.021-1.733-0.029-1.755-0.008-0.005 0.005-0.008 0.792-0.008 1.752 0 1.064-0.011 1.76-0.027 1.784-0.021 0.035-0.16 0.043-0.899 0.053l-0.875 0.013-0.008 0.853c-0.003 0.469 0 0.869 0.008 0.885 0.008 0.029 0.376 0.035 1.792 0.029l1.781-0.008 0.008-2.664zM26.787 11.507v-0.88l-0.875-0.013c-0.739-0.011-0.877-0.019-0.899-0.053-0.016-0.024-0.027-0.736-0.027-1.792 0-1.133-0.008-1.755-0.027-1.76-0.013-0.003-0.413-0.003-0.885 0.005l-0.861 0.013-0.008 2.653c-0.003 1.459 0 2.669 0.008 2.688 0.008 0.027 0.381 0.032 1.792 0.027l1.781-0.008v-0.88z"></path>
</symbol>
<symbol id="icon-Cool" viewBox="0 0 32 32">
<path fill="#000" style="fill: var(--color3, #000)" d="M10.747 30.363c0-0.021 0.024-0.048 0.053-0.056 0.051-0.016 0.053-0.040 0.053-0.917 0-0.664-0.008-0.907-0.032-0.931s-0.261-0.032-0.907-0.032h-0.875v-1.787h-1.787v-0.875c0-0.645-0.008-0.883-0.032-0.907s-0.261-0.032-0.907-0.032h-0.875v-1.784c0-1.603-0.005-1.784-0.043-1.8-0.024-0.008-0.424-0.016-0.891-0.016h-0.851l-0.003-6.152v-6.155l1.792 0.016-0.008-0.115c-0.003-0.064-0.005-0.891-0.003-1.84 0.005-1.517 0.011-1.728 0.045-1.728 0.021 0 0.040 0.019 0.040 0.040 0 0.035 0.107 0.040 0.861 0.035l0.859-0.008 0.008-0.061c0.005-0.035-0.005-0.080-0.027-0.104-0.027-0.035-0.027-0.045 0-0.053 0.024-0.011 0.032-0.189 0.032-0.784v-0.771h1.28v0.688c0 0.381 0.008 0.781 0.016 0.893l0.019 0.205 0.883 0.005 0.883 0.008 0.027 3.573 0.888 0.008 0.885 0.005v0.691c0 0.821 0.019 1.088 0.075 1.109 0.053 0.021 7.533 0.019 7.589-0.003 0.027-0.011 0.043-0.048 0.043-0.093 0-0.059-0.013-0.077-0.053-0.077-0.029 0-0.053-0.011-0.053-0.027 0-0.013 0.024-0.027 0.053-0.027 0.053 0 0.053-0.019 0.053-0.827 0-0.717 0.005-0.827 0.040-0.827 0.021 0 0.040 0.019 0.040 0.040 0 0.035 0.107 0.040 0.861 0.035l0.859-0.008 0.008-0.061c0.005-0.035-0.005-0.080-0.024-0.101-0.024-0.029-0.024-0.048-0.003-0.069 0.024-0.024 0.032-0.469 0.032-1.693v-1.661h1.787v-0.259c0.003-0.144 0.003-0.547 0-0.896l-0.003-0.632h1.309l0.005 0.888 0.008 0.885 0.888 0.008 0.885 0.005v1.597c0 0.877 0.008 1.685 0.016 1.797l0.019 0.205 0.883 0.005 0.883 0.008v12.267l-0.867 0.008c-0.552 0.003-0.875 0.016-0.893 0.035-0.016 0.016-0.032 0.627-0.040 1.792l-0.013 1.765-1.76 0.027-0.027 1.787-0.885 0.008c-0.683 0.005-0.888 0.013-0.891 0.040-0.003 0.016-0.011 0.416-0.021 0.885l-0.016 0.853-1.76 0.027-0.027 1.947-5.192 0.008c-4.499 0.005-5.195 0-5.195-0.032z"></path>
<path fill="#81017f" style="fill: var(--color4, #81017f)" d="M10.747 30.363c0-0.021 0.024-0.048 0.053-0.056 0.051-0.016 0.053-0.040 0.053-0.917 0-0.664-0.008-0.907-0.032-0.931s-0.261-0.032-0.907-0.032h-0.875v-1.787h-1.787v-0.875c0-0.645-0.008-0.883-0.032-0.907s-0.261-0.032-0.907-0.032h-0.875v-1.784c0-1.603-0.005-1.784-0.043-1.8-0.024-0.008-0.424-0.016-0.893-0.016h-0.851v-1.659c0-0.909 0.008-1.685 0.016-1.72l0.016-0.061h1.619c0.971 0 1.632 0.011 1.656 0.027 0.035 0.021 0.043 0.16 0.053 0.899l0.013 0.875 1.76 0.027 0.027 1.76h3.573l0.027-1.76 0.867-0.008c0.776-0.005 0.869-0.011 0.901-0.051 0.024-0.035 0.032-0.256 0.032-0.891 0-0.747 0.005-0.848 0.043-0.861 0.053-0.021 3.435-0.021 3.488 0 0.037 0.013 0.043 0.115 0.043 0.861 0 0.635 0.008 0.856 0.035 0.891 0.029 0.040 0.123 0.045 0.899 0.051l0.867 0.008 0.027 1.76h3.573l0.027-1.76 0.867-0.008c0.776-0.005 0.869-0.011 0.901-0.051 0.024-0.035 0.032-0.256 0.032-0.891 0-0.747 0.005-0.848 0.043-0.861 0.024-0.008 0.765-0.016 1.651-0.016h1.611l0.016 0.088c0.008 0.045 0.011 0.819 0.008 1.712l-0.008 1.627-0.867 0.008c-0.552 0.003-0.875 0.016-0.893 0.035-0.016 0.016-0.032 0.627-0.040 1.792l-0.013 1.765-1.76 0.027-0.027 1.787-0.885 0.008c-0.683 0.005-0.888 0.013-0.891 0.040-0.003 0.016-0.011 0.416-0.021 0.885l-0.016 0.853-1.76 0.027-0.027 1.947-5.192 0.008c-4.499 0.005-5.195 0-5.195-0.032z"></path>
<path fill="#81017f" style="fill: var(--color4, #81017f)" d="M3.669 15.957c-0.008-0.024-0.016-1.616-0.016-3.539v-3.499l1.792 0.016-0.008-0.115c-0.003-0.064-0.005-0.891-0.003-1.84 0.005-1.517 0.011-1.728 0.045-1.728 0.021 0 0.040 0.019 0.040 0.040 0 0.035 0.107 0.040 0.861 0.035l0.859-0.008 0.008-0.061c0.005-0.035-0.005-0.080-0.027-0.104-0.027-0.035-0.027-0.045 0-0.053 0.024-0.011 0.032-0.189 0.032-0.784v-0.771h1.28v0.688c0 0.381 0.008 0.781 0.016 0.893l0.019 0.205 0.883 0.005 0.883 0.008 0.027 3.573 0.888 0.008 0.885 0.005v0.691c0 0.821 0.019 1.088 0.075 1.109 0.053 0.021 7.533 0.019 7.589-0.003 0.027-0.011 0.043-0.048 0.043-0.093 0-0.059-0.013-0.077-0.053-0.077-0.029 0-0.053-0.011-0.053-0.027 0-0.013 0.024-0.027 0.053-0.027 0.053 0 0.053-0.019 0.053-0.827 0-0.717 0.005-0.827 0.040-0.827 0.021 0 0.040 0.019 0.040 0.040 0 0.035 0.107 0.040 0.861 0.035l0.859-0.008 0.008-0.061c0.005-0.035-0.005-0.080-0.024-0.101-0.024-0.029-0.024-0.048-0.003-0.069 0.024-0.024 0.032-0.469 0.032-1.693v-1.661h1.787v-0.259c0.003-0.144 0.003-0.547 0-0.893l-0.003-0.635h1.309l0.005 0.888 0.008 0.885 0.888 0.008 0.885 0.005v1.597c0 0.877 0.008 1.685 0.016 1.797l0.019 0.205 0.883 0.005 0.883 0.008 0.008 3.44c0.003 1.893 0 3.48-0.008 3.528l-0.016 0.085h-12.315c-11.208 0-12.317-0.003-12.333-0.043z"></path>
<path fill="#cd66ff" style="fill: var(--color5, #cd66ff)" d="M10.747 30.363c0-0.021 0.024-0.048 0.053-0.056 0.051-0.016 0.053-0.040 0.053-0.917 0-0.664-0.008-0.907-0.032-0.931s-0.261-0.032-0.907-0.032h-0.875v-1.787h-1.787v-0.875c0-0.645-0.008-0.883-0.032-0.907s-0.261-0.032-0.907-0.032h-0.875v-1.784c0-1.963 0.013-1.816-0.163-1.816h-0.077l-0.005-0.805-0.008-0.808-0.747-0.008c-0.555-0.005-0.749-0.013-0.765-0.040-0.024-0.037-0.029-1.629-0.005-1.717l0.016-0.061h1.619c0.971 0 1.632 0.011 1.656 0.027 0.035 0.021 0.043 0.16 0.053 0.899l0.013 0.875 1.76 0.027 0.027 1.76h3.573l0.027-1.76 0.867-0.008c0.776-0.005 0.869-0.011 0.901-0.051 0.024-0.035 0.032-0.256 0.032-0.891 0-0.747 0.005-0.848 0.043-0.861 0.053-0.021 3.435-0.021 3.488 0 0.037 0.013 0.043 0.115 0.043 0.861 0 0.635 0.008 0.856 0.035 0.891 0.029 0.040 0.123 0.045 0.899 0.051l0.867 0.008 0.027 1.76h3.573l0.027-1.76 0.867-0.008c0.776-0.005 0.869-0.011 0.901-0.051 0.024-0.035 0.032-0.256 0.032-0.891 0-0.747 0.005-0.848 0.043-0.861 0.024-0.008 0.765-0.016 1.651-0.016h1.608l0.016 0.061c0.021 0.077 0.021 1.613 0 1.691l-0.016 0.061-0.752 0.005-0.749 0.008-0.008 0.808-0.005 0.805h-0.107c-0.056 0-0.112 0.016-0.125 0.035-0.011 0.016-0.027 0.824-0.035 1.792l-0.013 1.76-1.76 0.027-0.027 1.787-0.885 0.008c-0.683 0.005-0.888 0.013-0.891 0.040-0.003 0.016-0.011 0.416-0.021 0.885l-0.016 0.853-1.76 0.027-0.027 1.947-5.192 0.008c-4.499 0.005-5.195 0-5.195-0.032zM15.995 25.901l0.005-0.888h-3.6v0.875c0 0.483 0.008 0.885 0.019 0.893 0.008 0.011 0.816 0.016 1.792 0.013l1.776-0.008 0.008-0.885zM19.595 25.901l0.005-0.888h-1.787v0.875c0 0.483 0.008 0.885 0.019 0.893 0.011 0.011 0.408 0.016 0.885 0.013l0.869-0.008 0.008-0.885zM12.395 24.101l-0.008-0.888h-1.76l-0.013 0.853c-0.008 0.469-0.008 0.869-0.003 0.888 0.005 0.024 0.211 0.032 0.899 0.032h0.891l-0.005-0.885zM17.787 23.288c0-0.936 0.008-1.725 0.016-1.757s-0.003-0.075-0.029-0.099c-0.037-0.037-0.216-0.043-1.715-0.045-0.92 0-1.712 0.008-1.76 0.016l-0.085 0.019 0.005 0.883 0.008 0.883 1.76 0.027 0.008 0.888 0.005 0.885h1.787v-1.699zM21.381 24.101l-0.008-0.888h-1.76l-0.008 0.888-0.005 0.885h1.787l-0.005-0.885z"></path>
<path fill="#cd66ff" style="fill: var(--color5, #cd66ff)" d="M3.669 15.957c-0.008-0.024-0.016-1.616-0.016-3.539v-3.499l1.792 0.016-0.008-0.115c-0.003-0.064-0.005-0.891-0.003-1.84 0.005-1.517 0.011-1.728 0.045-1.728 0.021 0 0.040 0.019 0.040 0.040 0 0.035 0.107 0.040 0.861 0.035l0.859-0.008 0.008-0.061c0.005-0.035-0.005-0.080-0.027-0.104-0.027-0.035-0.027-0.045 0-0.053 0.024-0.011 0.032-0.189 0.032-0.784v-0.771h1.28v0.688c0 0.381 0.008 0.781 0.016 0.893l0.019 0.205 0.883 0.005 0.883 0.008 0.027 3.573 0.883 0.008 0.885 0.005 0.008 0.883c0.011 0.744 0.016 0.883 0.051 0.904 0.024 0.016 0.435 0.027 0.973 0.027 0.515 0 0.96 0.008 0.995 0.016l0.059 0.016v3.408h3.573v-3.408l0.061-0.016c0.032-0.008 0.475-0.016 0.984-0.016 0.507 0 0.941-0.008 0.965-0.016 0.027-0.011 0.043-0.048 0.043-0.093 0-0.059-0.013-0.077-0.053-0.077-0.029 0-0.053-0.011-0.053-0.027 0-0.013 0.024-0.027 0.053-0.027 0.053 0 0.053-0.019 0.053-0.827 0-0.717 0.005-0.827 0.040-0.827 0.021 0 0.040 0.019 0.040 0.040 0 0.035 0.107 0.040 0.861 0.035l0.859-0.008 0.008-0.061c0.005-0.035-0.005-0.080-0.024-0.101-0.024-0.029-0.024-0.048-0.003-0.069 0.024-0.024 0.032-0.469 0.032-1.693v-1.661h1.787v-0.259c0.003-0.144 0.003-0.547 0-0.893l-0.003-0.635h1.309l0.005 0.888 0.008 0.885 0.888 0.008 0.885 0.005v1.597c0 0.877 0.008 1.685 0.016 1.797l0.019 0.205 0.883 0.005 0.883 0.008 0.008 3.44c0.003 1.893 0 3.48-0.008 3.528l-0.016 0.085h-12.315c-11.208 0-12.317-0.003-12.333-0.043zM8.795 9.723c0.003-1.52-0.005-2.677-0.019-2.691-0.021-0.021-1.733-0.029-1.755-0.008-0.005 0.005-0.008 0.792-0.008 1.752 0 1.064-0.011 1.76-0.027 1.784-0.021 0.035-0.16 0.043-0.899 0.053l-0.875 0.013-0.008 0.853c-0.003 0.469 0 0.869 0.008 0.885 0.008 0.029 0.376 0.035 1.792 0.029l1.781-0.008 0.008-2.664zM26.787 11.507v-0.88l-0.875-0.013c-0.739-0.011-0.877-0.019-0.899-0.053-0.016-0.024-0.027-0.736-0.027-1.792 0-1.133-0.008-1.755-0.027-1.76-0.013-0.003-0.413-0.003-0.885 0.005l-0.861 0.013-0.008 2.653c-0.003 1.459 0 2.669 0.008 2.688 0.008 0.027 0.381 0.032 1.792 0.027l1.781-0.008v-0.88z"></path>
</symbol>
<symbol id="icon-Laugh" viewBox="0 0 32 32">
<path fill="#800080" style="fill: var(--color6, #800080)" d="M10 31v-1h-2v-2h-2v-2h-2v-4h-2v-14h2v-4h2v-2h2v2h2v4h2v2h8v-2h2v-4h2v-2h2v2h2v4h2v14h-2v4h-2v2h-2v2h-2v2h-12v-1z"></path>
<path fill="#c6f" style="fill: var(--color7, #c6f)" d="M10 31v-1h-2v-2h-2v-2h-2v-6h-2v-2h4v-2h-4v-8h2v-4h2v-2h2v2h2v4h2v2h2v4h4v-4h2v-2h2v-4h2v-2h2v2h2v4h2v8h-4v2h4v2h-2v6h-2v2h-2v2h-2v2h-4v-2h-4v2h-4v-1zM14 29v-1h4v2h2v-2h2v-2h2v-2h-2v2h-4v-4h-4v2h2v2h-6v-2h-2v2h2v2h2v2h2v-1zM10 19v-1h2v-2h-2v2h-2v2h2v-1zM24 19v-1h-2v-2h-2v2h2v2h2v-1zM8 9v-3h-2v4h-2v2h4v-3zM28 11v-1h-2v-4h-2v6h4v-1z"></path>
</symbol>
<symbol id="icon-Sad" viewBox="0 0 32 32">
<path fill="#81007f" style="fill: var(--color1, #81007f)" d="M10.747 30.363c0-0.021 0.024-0.045 0.051-0.056 0.051-0.016 0.053-0.051 0.061-0.875 0.005-0.541-0.003-0.883-0.019-0.925l-0.027-0.067-0.888-0.008-0.885-0.005v-1.787h-1.787v-0.875c0-0.645-0.008-0.883-0.032-0.907s-0.261-0.032-0.907-0.032h-0.875v-1.784c0-1.603-0.005-1.784-0.043-1.8-0.024-0.008-0.424-0.016-0.891-0.016h-0.851l-0.003-6.152v-6.155l1.792 0.016-0.008-0.115c-0.003-0.064-0.005-0.891-0.003-1.84 0.005-1.517 0.011-1.728 0.045-1.728 0.021 0 0.040 0.019 0.040 0.040 0 0.035 0.107 0.040 0.861 0.035l0.859-0.008 0.008-0.061c0.005-0.035-0.005-0.080-0.027-0.104-0.027-0.035-0.027-0.045 0-0.053 0.024-0.011 0.032-0.189 0.032-0.784v-0.771h1.28v0.688c0 0.381 0.008 0.781 0.016 0.893l0.019 0.205 0.883 0.005 0.883 0.008 0.027 3.573 0.888 0.008 0.885 0.005v0.691c0 0.821 0.019 1.088 0.075 1.109 0.053 0.021 7.533 0.019 7.589-0.003 0.027-0.011 0.043-0.048 0.043-0.093 0-0.059-0.013-0.077-0.053-0.077-0.029 0-0.053-0.011-0.053-0.027 0-0.013 0.024-0.027 0.053-0.027 0.053 0 0.053-0.019 0.053-0.827 0-0.717 0.005-0.827 0.040-0.827 0.021 0 0.040 0.019 0.040 0.040 0 0.035 0.107 0.040 0.861 0.035l0.859-0.008 0.008-0.061c0.005-0.035-0.005-0.080-0.024-0.101-0.024-0.029-0.024-0.048-0.003-0.069 0.024-0.024 0.032-0.469 0.032-1.693v-1.661h1.787v-0.259c0.003-0.144 0.003-0.547 0-0.896l-0.003-0.632h1.309l0.005 0.888 0.008 0.885 0.888 0.008 0.885 0.005v1.597c0 0.877 0.008 1.685 0.016 1.797l0.019 0.205 0.883 0.005 0.883 0.008v12.267l-0.867 0.008c-0.552 0.003-0.875 0.016-0.893 0.035-0.016 0.016-0.032 0.627-0.040 1.792l-0.013 1.765-1.76 0.027-0.027 1.787-0.885 0.008c-0.683 0.005-0.888 0.013-0.891 0.040-0.003 0.016-0.011 0.416-0.021 0.885l-0.016 0.853-0.875 0.008c-0.757 0.005-0.877 0.011-0.891 0.048-0.008 0.021-0.016 0.461-0.019 0.979l-0.003 0.939-5.192 0.008c-4.499 0.005-5.195 0-5.195-0.032z"></path>
<path fill="#9e29b2" style="fill: var(--color8, #9e29b2)" d="M10.747 30.363c0-0.021 0.024-0.048 0.053-0.056 0.051-0.016 0.053-0.040 0.053-0.813 0-0.437 0.008-0.813 0.016-0.837 0.013-0.037 0.104-0.043 0.741-0.043 0.528 0 0.733-0.008 0.757-0.032s0.032-0.261 0.032-0.907v-0.875l-0.885 0.005-0.888 0.008-0.008 0.808-0.005 0.805h-1.573v-1.787h-1.787v-0.875c0-0.645-0.008-0.883-0.032-0.907s-0.261-0.032-0.907-0.032h-0.875v-1.784c0-1.963 0.013-1.816-0.163-1.816h-0.077l-0.005-0.805-0.008-0.808-0.747-0.008c-0.555-0.005-0.749-0.013-0.765-0.040-0.024-0.037-0.029-1.648-0.005-1.709 0.016-0.037 0.184-0.043 1.637-0.043 1.309 0 1.629-0.008 1.659-0.035 0.027-0.029 0.032-0.205 0.021-0.901l-0.013-0.864-1.637-0.008c-1.272-0.005-1.645-0.013-1.661-0.040-0.011-0.016-0.021-1.611-0.021-3.539v-3.507l1.792 0.016-0.008-0.115c-0.003-0.064-0.005-0.891-0.003-1.84 0.005-1.517 0.011-1.728 0.045-1.728 0.021 0 0.040 0.019 0.040 0.040 0 0.035 0.107 0.040 0.861 0.035l0.859-0.008 0.008-0.061c0.005-0.035-0.005-0.080-0.027-0.104-0.027-0.035-0.027-0.045 0-0.053 0.024-0.011 0.032-0.189 0.032-0.784v-0.771h1.28v0.688c0 0.381 0.008 0.781 0.016 0.893l0.019 0.205 0.883 0.005 0.883 0.008 0.027 3.573 0.883 0.008 0.885 0.005 0.008 0.883c0.011 0.744 0.016 0.883 0.051 0.904 0.024 0.016 0.44 0.027 0.987 0.027 0.52 0 0.96 0.011 0.979 0.021 0.027 0.016 0.035 0.416 0.040 1.704 0.005 0.925 0.019 1.693 0.029 1.707 0.029 0.029 3.528 0.029 3.557 0 0.011-0.013 0.024-0.781 0.029-1.707 0.005-1.288 0.013-1.688 0.040-1.704 0.019-0.011 0.453-0.021 0.971-0.021 0.515 0 0.955-0.008 0.979-0.016 0.027-0.011 0.043-0.048 0.043-0.093 0-0.059-0.013-0.077-0.053-0.077-0.029 0-0.053-0.011-0.053-0.027 0-0.013 0.024-0.027 0.053-0.027 0.053 0 0.053-0.019 0.053-0.827 0-0.717 0.005-0.827 0.040-0.827 0.021 0 0.040 0.019 0.040 0.040 0 0.035 0.107 0.040 0.861 0.035l0.859-0.008 0.008-0.061c0.005-0.035-0.005-0.080-0.024-0.101-0.024-0.029-0.024-0.048-0.003-0.069 0.024-0.024 0.032-0.469 0.032-1.693v-1.661h1.787v-0.259c0.003-0.144 0.003-0.547 0-0.896l-0.003-0.632h1.309l0.005 0.888 0.008 0.885 0.888 0.008 0.885 0.005v1.597c0 0.877 0.008 1.685 0.016 1.797l0.019 0.205 0.883 0.005 0.883 0.008 0.008 3.44c0.003 1.893 0 3.48-0.008 3.528l-0.016 0.085h-1.635c-1.28 0-1.64 0.008-1.659 0.035-0.013 0.016-0.021 0.419-0.016 0.888l0.008 0.859 0.059 0.016c0.032 0.008 0.773 0.016 1.648 0.016 1.427 0 1.592 0.005 1.608 0.043 0.021 0.053 0.021 1.605 0 1.683l-0.016 0.061-0.752 0.005-0.749 0.008-0.008 0.808-0.005 0.805h-0.107c-0.056 0-0.112 0.016-0.125 0.035-0.011 0.016-0.027 0.824-0.035 1.792l-0.013 1.76-1.76 0.027-0.027 1.787-0.885 0.008c-0.683 0.005-0.888 0.013-0.891 0.040-0.003 0.016-0.011 0.416-0.021 0.885l-0.016 0.853-0.765 0.008-0.768 0.005-0.005-0.805-0.008-0.808-0.885-0.008-0.888-0.005v0.875c0 0.645 0.008 0.883 0.032 0.907s0.229 0.032 0.76 0.032h0.728l0.013 0.061c0.008 0.032 0.011 0.432 0.008 0.885l-0.008 0.827-5.192 0.008c-4.499 0.005-5.195 0-5.195-0.032zM19.6 25.923c0-0.576-0.011-0.885-0.027-0.896s-0.403-0.016-0.861-0.016c-0.459 0.003-0.848-0.008-0.867-0.019-0.027-0.019-0.032-0.381-0.032-1.771 0-1.555-0.003-1.755-0.040-1.792s-0.232-0.040-1.787-0.035c-0.957 0.003-1.752 0.016-1.765 0.027-0.032 0.035-0.043 1.621-0.011 1.707l0.027 0.072 0.875 0.005 0.875 0.008 0.008 0.869c0.005 0.707 0 0.875-0.029 0.901-0.027 0.021-0.539 0.032-1.795 0.035l-1.757 0.008-0.008 0.888-0.005 0.885h7.2v-0.877zM12.387 17.8v-1.787h-1.76l-0.013 0.872c-0.008 0.477-0.021 0.877-0.032 0.888-0.008 0.011-0.381 0.016-0.829 0.013-0.488 0-0.837 0.008-0.88 0.024l-0.072 0.029v0.861c0 0.475 0.008 0.872 0.019 0.88 0.008 0.011 0.816 0.016 1.792 0.013l1.776-0.008v-1.787zM23.163 19.563c0.051-0.053 0.056-1.707 0.005-1.741-0.019-0.011-0.421-0.024-0.893-0.029-0.475-0.005-0.864-0.011-0.867-0.013s-0.011-0.4-0.019-0.885l-0.016-0.88h-1.76l-0.008 1.76c-0.003 0.968 0 1.776 0.008 1.792 0.019 0.053 3.496 0.048 3.549-0.003zM8.795 9.723c0.003-1.52-0.005-2.677-0.019-2.691-0.021-0.021-1.733-0.029-1.755-0.008-0.005 0.005-0.008 0.792-0.008 1.752 0 1.064-0.011 1.76-0.027 1.784-0.021 0.035-0.16 0.043-0.899 0.053l-0.875 0.013-0.008 0.853c-0.003 0.469 0 0.869 0.008 0.885 0.008 0.029 0.376 0.035 1.792 0.029l1.781-0.008 0.008-2.664zM26.787 11.507v-0.88l-0.875-0.013c-0.739-0.011-0.877-0.019-0.899-0.053-0.016-0.024-0.027-0.736-0.027-1.789 0-1.379-0.008-1.755-0.032-1.76-0.019-0.005-0.419-0.005-0.888 0.003l-0.853 0.013-0.008 2.653c-0.003 1.459 0 2.669 0.008 2.688 0.008 0.027 0.381 0.032 1.792 0.027l1.781-0.008v-0.88z"></path>
<path fill="#097dfd" style="fill: var(--color9, #097dfd)" d="M10.747 30.363c0-0.021 0.024-0.048 0.053-0.056 0.051-0.016 0.053-0.040 0.053-0.813 0-0.437 0.008-0.813 0.016-0.837 0.013-0.037 0.104-0.043 0.741-0.043 0.528 0 0.733-0.008 0.757-0.032s0.032-0.261 0.032-0.907v-0.875l-0.885 0.005-0.888 0.008-0.008 0.808-0.005 0.805h-1.573v-1.787h-1.787v-0.875c0-0.645-0.008-0.883-0.032-0.907s-0.261-0.032-0.907-0.032h-0.875v-1.784c0-1.963 0.013-1.816-0.163-1.816h-0.077l-0.005-0.805-0.008-0.808-0.747-0.008c-0.555-0.005-0.749-0.013-0.765-0.040-0.024-0.037-0.029-1.648-0.005-1.709 0.016-0.037 0.184-0.043 1.637-0.043 1.309 0 1.629-0.008 1.659-0.035 0.027-0.029 0.032-0.205 0.021-0.901l-0.013-0.864-1.637-0.008c-1.272-0.005-1.645-0.013-1.661-0.040-0.011-0.016-0.021-1.611-0.021-3.539v-3.507l1.792 0.016-0.008-0.115c-0.003-0.064-0.005-0.891-0.003-1.84 0.005-1.517 0.011-1.728 0.045-1.728 0.021 0 0.040 0.019 0.040 0.040 0 0.035 0.107 0.040 0.861 0.035l0.859-0.008 0.008-0.061c0.005-0.035-0.005-0.080-0.027-0.104-0.027-0.035-0.027-0.045 0-0.053 0.024-0.011 0.032-0.189 0.032-0.784v-0.771h1.28v0.688c0 0.381 0.008 0.781 0.016 0.893l0.019 0.205 0.883 0.005 0.883 0.008 0.027 3.573 0.883 0.008 0.885 0.005 0.008 0.883c0.011 0.744 0.016 0.883 0.051 0.904 0.024 0.016 0.44 0.027 0.987 0.027 0.52 0 0.96 0.011 0.979 0.021 0.027 0.016 0.035 0.416 0.040 1.704 0.005 0.925 0.019 1.693 0.029 1.707 0.029 0.029 3.528 0.029 3.557 0 0.011-0.013 0.024-0.781 0.029-1.707 0.005-1.288 0.013-1.688 0.040-1.704 0.019-0.011 0.453-0.021 0.971-0.021 0.515 0 0.955-0.008 0.979-0.016 0.027-0.011 0.043-0.048 0.043-0.093 0-0.059-0.013-0.077-0.053-0.077-0.029 0-0.053-0.011-0.053-0.027 0-0.013 0.024-0.027 0.053-0.027 0.053 0 0.053-0.019 0.053-0.827 0-0.717 0.005-0.827 0.040-0.827 0.021 0 0.040 0.019 0.040 0.040 0 0.035 0.107 0.040 0.861 0.035l0.859-0.008 0.008-0.061c0.005-0.035-0.005-0.080-0.024-0.101-0.024-0.029-0.024-0.048-0.003-0.069 0.024-0.024 0.032-0.469 0.032-1.693v-1.661h1.787v-0.259c0.003-0.144 0.003-0.547 0-0.896l-0.003-0.632h1.309l0.005 0.888 0.008 0.885 0.888 0.008 0.885 0.005v1.597c0 0.877 0.008 1.685 0.016 1.797l0.019 0.205 0.883 0.005 0.883 0.008 0.008 3.44c0.003 1.893 0 3.48-0.008 3.528l-0.016 0.085h-1.635c-1.28 0-1.64 0.008-1.659 0.035-0.013 0.016-0.021 0.419-0.016 0.888l0.008 0.859 0.059 0.016c0.032 0.008 0.773 0.016 1.648 0.016 1.427 0 1.592 0.005 1.608 0.043 0.021 0.053 0.021 1.605 0 1.683l-0.016 0.061-0.752 0.005-0.749 0.008-0.008 0.808-0.005 0.805h-0.107c-0.056 0-0.112 0.016-0.125 0.035-0.011 0.016-0.027 0.824-0.035 1.792l-0.013 1.76-1.76 0.027-0.027 1.787-0.885 0.008c-0.683 0.005-0.888 0.013-0.891 0.040-0.003 0.016-0.011 0.416-0.021 0.885l-0.016 0.853-0.765 0.008-0.768 0.005-0.005-0.805-0.008-0.808-0.885-0.008-0.888-0.005v0.875c0 0.645 0.008 0.883 0.032 0.907s0.229 0.032 0.76 0.032h0.728l0.013 0.061c0.008 0.032 0.011 0.432 0.008 0.885l-0.008 0.827-5.192 0.008c-4.499 0.005-5.195 0-5.195-0.032zM19.6 25.923c0-0.576-0.011-0.885-0.027-0.896s-0.403-0.016-0.861-0.016c-0.459 0.003-0.848-0.008-0.867-0.019-0.027-0.019-0.032-0.381-0.032-1.771 0-1.555-0.003-1.755-0.040-1.792s-0.232-0.040-1.787-0.035c-0.957 0.003-1.752 0.016-1.765 0.027-0.032 0.035-0.043 1.621-0.011 1.707l0.027 0.072 0.875 0.005 0.875 0.008 0.008 0.869c0.005 0.707 0 0.875-0.029 0.901-0.027 0.021-0.539 0.032-1.795 0.035l-1.757 0.008-0.008 0.888-0.005 0.885h7.2v-0.877zM23.187 19.589c0.019-0.005 0.021-0.312 0.013-0.885l-0.013-0.875-0.067-0.019c-0.037-0.011-0.435-0.019-0.885-0.021-0.453-0.003-0.824-0.005-0.827-0.008-0.003-0.005-0.011-0.403-0.019-0.888l-0.016-0.88h-1.76v3.573l0.867 0.013c0.877 0.013 2.659 0.005 2.707-0.011zM12.387 17.8v-1.787h-1.76l-0.013 0.872c-0.008 0.477-0.021 0.877-0.032 0.888-0.008 0.011-0.381 0.016-0.829 0.013-0.488 0-0.837 0.008-0.88 0.024l-0.072 0.029v0.861c0 0.475 0.008 0.872 0.019 0.88 0.008 0.011 0.816 0.016 1.792 0.013l1.776-0.008v-1.787zM8.795 9.723c0.003-1.52-0.005-2.677-0.019-2.691-0.021-0.021-1.733-0.029-1.755-0.008-0.005 0.005-0.008 0.792-0.008 1.752 0 1.064-0.011 1.76-0.027 1.784-0.021 0.035-0.16 0.043-0.899 0.053l-0.875 0.013-0.008 0.853c-0.003 0.469 0 0.869 0.008 0.885 0.008 0.029 0.376 0.035 1.792 0.029l1.781-0.008 0.008-2.664zM26.787 11.507v-0.88l-0.875-0.013c-0.739-0.011-0.877-0.019-0.899-0.053-0.016-0.024-0.027-0.736-0.027-1.789 0-1.379-0.008-1.755-0.032-1.76-0.019-0.005-0.419-0.005-0.888 0.003l-0.853 0.013-0.008 2.653c-0.003 1.459 0 2.669 0.008 2.688 0.008 0.027 0.381 0.032 1.792 0.027l1.781-0.008v-0.88z"></path>
<path fill="#cd66ff" style="fill: var(--color5, #cd66ff)" d="M10.747 30.363c0-0.021 0.024-0.048 0.053-0.056 0.051-0.016 0.053-0.040 0.053-0.813 0-0.437 0.008-0.813 0.016-0.837 0.013-0.037 0.104-0.043 0.741-0.043 0.528 0 0.733-0.008 0.757-0.032s0.032-0.261 0.032-0.907v-0.875l-0.885 0.005-0.888 0.008-0.008 0.808-0.005 0.805h-1.573v-1.787h-1.787v-0.875c0-0.645-0.008-0.883-0.032-0.907s-0.261-0.032-0.907-0.032h-0.875v-1.784c0-1.963 0.013-1.816-0.163-1.816h-0.077l-0.005-0.805-0.008-0.808-0.747-0.008c-0.555-0.005-0.749-0.013-0.765-0.040-0.024-0.037-0.029-1.648-0.005-1.709 0.016-0.037 0.184-0.043 1.637-0.043 1.309 0 1.629-0.008 1.659-0.035 0.027-0.029 0.032-0.205 0.021-0.901l-0.013-0.864-1.637-0.008c-1.272-0.005-1.645-0.013-1.661-0.040-0.011-0.016-0.021-1.611-0.021-3.539v-3.507l1.792 0.016-0.008-0.115c-0.003-0.064-0.005-0.891-0.003-1.84 0.005-1.517 0.011-1.728 0.045-1.728 0.021 0 0.040 0.019 0.040 0.040 0 0.035 0.107 0.040 0.861 0.035l0.859-0.008 0.008-0.061c0.005-0.035-0.005-0.080-0.027-0.104-0.027-0.035-0.027-0.045 0-0.053 0.024-0.011 0.032-0.189 0.032-0.784v-0.771h1.28v0.688c0 0.381 0.008 0.781 0.016 0.893l0.019 0.205 0.883 0.005 0.883 0.008 0.027 3.573 0.883 0.008 0.885 0.005 0.008 0.883c0.011 0.744 0.016 0.883 0.051 0.904 0.024 0.016 0.44 0.027 0.987 0.027 0.52 0 0.96 0.011 0.979 0.021 0.027 0.016 0.035 0.416 0.040 1.704 0.005 0.925 0.019 1.693 0.029 1.707 0.029 0.029 3.528 0.029 3.557 0 0.011-0.013 0.024-0.781 0.029-1.707 0.005-1.288 0.013-1.688 0.040-1.704 0.019-0.011 0.453-0.021 0.971-0.021 0.515 0 0.955-0.008 0.979-0.016 0.027-0.011 0.043-0.048 0.043-0.093 0-0.059-0.013-0.077-0.053-0.077-0.029 0-0.053-0.011-0.053-0.027 0-0.013 0.024-0.027 0.053-0.027 0.053 0 0.053-0.019 0.053-0.827 0-0.717 0.005-0.827 0.040-0.827 0.021 0 0.040 0.019 0.040 0.040 0 0.035 0.107 0.040 0.861 0.035l0.859-0.008 0.008-0.061c0.005-0.035-0.005-0.080-0.024-0.101-0.024-0.029-0.024-0.048-0.003-0.069 0.024-0.024 0.032-0.469 0.032-1.693v-1.661h1.787v-0.259c0.003-0.144 0.003-0.547 0-0.896l-0.003-0.632h1.309l0.005 0.888 0.008 0.885 0.888 0.008 0.885 0.005v1.597c0 0.877 0.008 1.685 0.016 1.797l0.019 0.205 0.883 0.005 0.883 0.008 0.008 3.44c0.003 1.893 0 3.48-0.008 3.528l-0.016 0.085h-1.635c-1.28 0-1.64 0.008-1.659 0.035-0.013 0.016-0.021 0.419-0.016 0.888l0.008 0.859 0.059 0.016c0.032 0.008 0.773 0.016 1.648 0.016 1.427 0 1.592 0.005 1.608 0.043 0.021 0.053 0.021 1.605 0 1.683l-0.016 0.061-0.752 0.005-0.749 0.008-0.008 0.808-0.005 0.805h-0.107c-0.056 0-0.112 0.016-0.125 0.035-0.011 0.016-0.027 0.824-0.035 1.792l-0.013 1.76-1.76 0.027-0.027 1.787-0.885 0.008c-0.683 0.005-0.888 0.013-0.891 0.040-0.003 0.016-0.011 0.416-0.021 0.885l-0.016 0.853-0.765 0.008-0.768 0.005-0.005-0.805-0.008-0.808-0.885-0.008-0.888-0.005v0.875c0 0.645 0.008 0.883 0.032 0.907s0.229 0.032 0.76 0.032h0.728l0.013 0.061c0.008 0.032 0.011 0.432 0.008 0.885l-0.008 0.827-5.192 0.008c-4.499 0.005-5.195 0-5.195-0.032zM19.6 25.923c0-0.576-0.011-0.885-0.027-0.896s-0.403-0.016-0.861-0.016c-0.459 0.003-0.848-0.008-0.867-0.019-0.027-0.019-0.032-0.381-0.032-1.771 0-1.555-0.003-1.755-0.040-1.792s-0.232-0.040-1.787-0.035c-0.957 0.003-1.752 0.016-1.765 0.027-0.032 0.035-0.043 1.621-0.011 1.707l0.027 0.072 0.875 0.005 0.875 0.008 0.008 0.869c0.005 0.707 0 0.875-0.029 0.901-0.027 0.021-0.539 0.032-1.795 0.035l-1.757 0.008-0.008 0.888-0.005 0.885h7.2v-0.877zM23.184 23.176c0.029-0.048 0.019-5.317-0.011-5.347-0.019-0.019-0.331-0.032-0.893-0.037-0.477-0.005-0.869-0.011-0.872-0.013s-0.011-0.4-0.019-0.885l-0.016-0.88h-1.76v3.573l0.864 0.008c0.584 0.003 0.877 0.016 0.901 0.035 0.029 0.024 0.035 0.355 0.035 1.784 0 0.963 0.008 1.76 0.019 1.768 0.027 0.029 1.736 0.021 1.752-0.005zM12.387 17.8v-1.787h-1.76l-0.013 0.872c-0.008 0.477-0.021 0.877-0.032 0.888-0.008 0.011-0.381 0.016-0.829 0.013-0.488 0-0.837 0.008-0.88 0.024l-0.072 0.029v0.861c0 0.475 0.008 0.872 0.019 0.88 0.008 0.011 0.816 0.016 1.792 0.013l1.776-0.008v-1.787zM8.795 9.723c0.003-1.52-0.005-2.677-0.019-2.691-0.021-0.021-1.733-0.029-1.755-0.008-0.005 0.005-0.008 0.792-0.008 1.752 0 1.064-0.011 1.76-0.027 1.784-0.021 0.035-0.16 0.043-0.899 0.053l-0.875 0.013-0.008 0.853c-0.003 0.469 0 0.869 0.008 0.885 0.008 0.029 0.376 0.035 1.792 0.029l1.781-0.008 0.008-2.664zM26.787 11.507v-0.88l-0.875-0.013c-0.739-0.011-0.877-0.019-0.899-0.053-0.016-0.024-0.027-0.736-0.027-1.789 0-1.379-0.008-1.755-0.032-1.76-0.019-0.005-0.419-0.005-0.888 0.003l-0.853 0.013-0.008 2.653c-0.003 1.459 0 2.669 0.008 2.688 0.008 0.027 0.381 0.032 1.792 0.027l1.781-0.008v-0.88z"></path>
</symbol>
<symbol id="icon-Speechless" viewBox="0 0 32 32">
<path fill="#81007f" style="fill: var(--color1, #81007f)" d="M10.747 30.363c0-0.021 0.024-0.048 0.053-0.056 0.051-0.016 0.053-0.040 0.053-0.917 0-0.664-0.008-0.907-0.032-0.931s-0.261-0.032-0.907-0.032h-0.875v-1.787h-1.787v-0.875c0-0.645-0.008-0.883-0.032-0.907s-0.261-0.032-0.907-0.032h-0.875v-1.784c0-1.603-0.005-1.784-0.043-1.8-0.024-0.008-0.424-0.016-0.891-0.016h-0.851l-0.003-6.152v-6.155l1.792 0.016-0.008-0.115c-0.003-0.064-0.005-0.891-0.003-1.84 0.005-1.517 0.011-1.728 0.045-1.728 0.021 0 0.040 0.019 0.040 0.040 0 0.035 0.107 0.040 0.861 0.035l0.859-0.008 0.008-0.061c0.005-0.035-0.005-0.080-0.027-0.104-0.027-0.035-0.027-0.045 0-0.053 0.024-0.011 0.032-0.189 0.032-0.784v-0.771h1.28v0.688c0 0.381 0.008 0.781 0.016 0.893l0.019 0.205 0.883 0.005 0.883 0.008 0.027 3.573 0.888 0.008 0.885 0.005v0.691c0 0.821 0.019 1.088 0.075 1.109 0.053 0.021 7.533 0.019 7.589-0.003 0.027-0.011 0.043-0.048 0.043-0.093 0-0.059-0.013-0.077-0.053-0.077-0.029 0-0.053-0.011-0.053-0.027 0-0.013 0.024-0.027 0.053-0.027 0.053 0 0.053-0.019 0.053-0.827 0-0.717 0.005-0.827 0.040-0.827 0.021 0 0.040 0.019 0.040 0.040 0 0.035 0.107 0.040 0.861 0.035l0.859-0.008 0.008-0.061c0.005-0.035-0.005-0.080-0.024-0.101-0.024-0.029-0.024-0.048-0.003-0.069 0.024-0.024 0.032-0.469 0.032-1.693v-1.661h1.787v-0.259c0.003-0.144 0.003-0.547 0-0.896l-0.003-0.632h1.309l0.005 0.888 0.008 0.885 0.888 0.008 0.885 0.005v1.597c0 0.877 0.008 1.685 0.016 1.797l0.019 0.205 0.883 0.005 0.883 0.008v12.267l-0.867 0.008c-0.552 0.003-0.875 0.016-0.893 0.035-0.016 0.016-0.032 0.627-0.040 1.792l-0.013 1.765-1.76 0.027-0.027 1.787-0.885 0.008c-0.683 0.005-0.888 0.013-0.891 0.040-0.003 0.016-0.011 0.416-0.021 0.885l-0.016 0.853-1.76 0.027-0.027 1.947-5.192 0.008c-4.499 0.005-5.195 0-5.195-0.032z"></path>
<path fill="#cc64fd" style="fill: var(--color10, #cc64fd)" d="M10.747 30.363c0-0.021 0.024-0.048 0.053-0.056 0.051-0.016 0.053-0.040 0.053-0.917 0-0.664-0.008-0.907-0.032-0.931s-0.261-0.032-0.907-0.032h-0.875v-1.787h-1.787v-0.875c0-0.645-0.008-0.883-0.032-0.907s-0.261-0.032-0.907-0.032h-0.875v-1.784c0-1.963 0.013-1.816-0.163-1.816h-0.077l-0.005-0.805-0.008-0.808-0.747-0.008c-0.555-0.005-0.749-0.013-0.765-0.040-0.024-0.037-0.029-1.629-0.005-1.72l0.016-0.061 1.643 0.003c1.021 0.003 1.645-0.005 1.656-0.021 0.008-0.016 0.011-0.416 0.003-0.891l-0.013-0.861-1.637-0.008c-1.272-0.005-1.645-0.013-1.661-0.040-0.011-0.016-0.021-1.611-0.021-3.539v-3.507l1.792 0.016-0.008-0.115c-0.003-0.064-0.005-0.891-0.003-1.84 0.005-1.517 0.011-1.728 0.045-1.728 0.021 0 0.040 0.019 0.040 0.040 0 0.035 0.107 0.040 0.861 0.035l0.859-0.008 0.008-0.061c0.005-0.035-0.005-0.080-0.027-0.104-0.027-0.035-0.027-0.045 0-0.053 0.024-0.011 0.032-0.189 0.032-0.784v-0.771h1.28v0.688c0 0.381 0.008 0.781 0.016 0.893l0.019 0.205 0.883 0.005 0.883 0.008 0.027 3.573 0.883 0.008 0.885 0.005 0.008 0.883c0.011 0.744 0.016 0.883 0.051 0.904 0.024 0.016 0.435 0.027 0.973 0.027 0.515 0 0.96 0.008 0.995 0.016l0.059 0.016v3.408h3.573v-3.408l0.061-0.016c0.032-0.008 0.475-0.016 0.984-0.016 0.507 0 0.941-0.008 0.965-0.016 0.027-0.011 0.043-0.048 0.043-0.093 0-0.059-0.013-0.077-0.053-0.077-0.029 0-0.053-0.011-0.053-0.027 0-0.013 0.024-0.027 0.053-0.027 0.053 0 0.053-0.019 0.053-0.827 0-0.717 0.005-0.827 0.040-0.827 0.021 0 0.040 0.019 0.040 0.040 0 0.035 0.107 0.040 0.861 0.035l0.859-0.008 0.008-0.061c0.005-0.035-0.005-0.080-0.024-0.101-0.024-0.029-0.024-0.048-0.003-0.069 0.024-0.024 0.032-0.469 0.032-1.693v-1.661h1.787v-0.259c0.003-0.144 0.003-0.547 0-0.896l-0.003-0.632h1.309l0.005 0.888 0.008 0.885 0.888 0.008 0.885 0.005v1.597c0 0.877 0.008 1.685 0.016 1.797l0.019 0.205 0.883 0.005 0.883 0.008 0.008 3.44c0.003 1.893 0 3.48-0.008 3.528l-0.016 0.085h-1.635c-1.28 0-1.64 0.008-1.659 0.035-0.013 0.016-0.021 0.419-0.016 0.893l0.008 0.859h3.299l0.016 0.061c0.021 0.077 0.021 1.613 0 1.691l-0.016 0.061-0.752 0.005-0.749 0.008-0.008 0.808-0.005 0.805h-0.107c-0.056 0-0.112 0.016-0.125 0.035-0.011 0.016-0.027 0.824-0.035 1.792l-0.013 1.76-1.76 0.027-0.027 1.787-0.885 0.008c-0.683 0.005-0.888 0.013-0.891 0.040-0.003 0.016-0.011 0.416-0.021 0.885l-0.016 0.853-1.76 0.027-0.027 1.947-5.192 0.008c-4.499 0.005-5.195 0-5.195-0.032zM17.787 23.285c0-0.933 0.008-1.723 0.016-1.755s-0.003-0.075-0.029-0.099c-0.037-0.037-0.216-0.043-1.715-0.045-0.92 0-1.712 0.008-1.76 0.016l-0.085 0.019 0.005 0.883 0.008 0.883 1.76 0.027 0.008 0.864c0.003 0.475 0.016 0.877 0.029 0.893 0.019 0.021 0.293 0.027 0.893 0.021l0.869-0.008v-1.699zM12.387 17.8v-1.787h-1.76l-0.013 0.872c-0.008 0.477-0.024 0.88-0.035 0.893-0.013 0.011-0.416 0.027-0.893 0.035l-0.872 0.013-0.008 0.853c-0.003 0.469 0 0.869 0.008 0.885 0.008 0.029 0.376 0.035 1.792 0.029l1.781-0.008v-1.787zM23.187 18.707v-0.88l-0.872-0.013c-0.477-0.008-0.88-0.024-0.893-0.035-0.011-0.013-0.027-0.416-0.035-0.893l-0.013-0.872h-1.76l-0.008 1.76c-0.003 0.968 0 1.776 0.008 1.795 0.008 0.027 0.381 0.032 1.792 0.027l1.781-0.008v-0.88zM8.795 9.723c0.003-1.52-0.005-2.677-0.019-2.691-0.021-0.021-1.733-0.029-1.755-0.008-0.005 0.005-0.008 0.792-0.008 1.752 0 1.064-0.011 1.76-0.027 1.784-0.021 0.035-0.16 0.043-0.899 0.053l-0.875 0.013-0.008 0.853c-0.003 0.469 0 0.869 0.008 0.885 0.008 0.029 0.376 0.035 1.792 0.029l1.781-0.008 0.008-2.664zM26.787 11.507v-0.88l-0.875-0.013c-0.739-0.011-0.877-0.019-0.899-0.053-0.016-0.024-0.027-0.736-0.027-1.792 0-1.133-0.008-1.755-0.027-1.76-0.013-0.003-0.413-0.003-0.885 0.005l-0.861 0.013-0.008 2.653c-0.003 1.459 0 2.669 0.008 2.688 0.008 0.027 0.381 0.032 1.792 0.027l1.781-0.008v-0.88z"></path>
</symbol>
<symbol id="icon-Wow" viewBox="0 0 32 32">
<path fill="#81007f" style="fill: var(--color1, #81007f)" d="M10.747 30.363c0-0.021 0.024-0.048 0.053-0.056 0.051-0.016 0.053-0.040 0.053-0.917 0-0.664-0.008-0.907-0.032-0.931s-0.261-0.032-0.907-0.032h-0.875v-1.787h-1.787v-0.875c0-0.645-0.008-0.883-0.032-0.907s-0.261-0.032-0.907-0.032h-0.875v-1.784c0-1.603-0.005-1.784-0.043-1.8-0.024-0.008-0.424-0.016-0.891-0.016h-0.851l-0.003-6.152v-6.155l1.792 0.016-0.008-0.115c-0.003-0.064-0.005-0.891-0.003-1.84 0.005-1.517 0.011-1.728 0.045-1.728 0.021 0 0.040 0.019 0.040 0.040 0 0.035 0.107 0.040 0.861 0.035l0.859-0.008 0.008-0.061c0.005-0.035-0.005-0.080-0.027-0.104-0.027-0.035-0.027-0.045 0-0.053 0.024-0.011 0.032-0.189 0.032-0.784v-0.771h1.28v0.688c0 0.381 0.008 0.781 0.016 0.893l0.019 0.205 0.883 0.005 0.883 0.008 0.027 3.573 0.888 0.008 0.885 0.005v0.691c0 0.821 0.019 1.088 0.075 1.109 0.053 0.021 7.533 0.019 7.589-0.003 0.027-0.011 0.043-0.048 0.043-0.093 0-0.059-0.013-0.077-0.053-0.077-0.029 0-0.053-0.011-0.053-0.027 0-0.013 0.024-0.027 0.053-0.027 0.053 0 0.053-0.019 0.053-0.827 0-0.717 0.005-0.827 0.040-0.827 0.021 0 0.040 0.019 0.040 0.040 0 0.035 0.107 0.040 0.861 0.035l0.859-0.008 0.008-0.061c0.005-0.035-0.005-0.080-0.024-0.101-0.024-0.029-0.024-0.048-0.003-0.069 0.024-0.024 0.032-0.469 0.032-1.693v-1.661h1.787v-0.259c0.003-0.144 0.003-0.547 0-0.896l-0.003-0.632h1.309l0.005 0.888 0.008 0.885 0.888 0.008 0.885 0.005v1.597c0 0.877 0.008 1.685 0.016 1.797l0.019 0.205 0.883 0.005 0.883 0.008v12.267l-0.867 0.008c-0.552 0.003-0.875 0.016-0.893 0.035-0.016 0.016-0.032 0.627-0.040 1.792l-0.013 1.765-1.76 0.027-0.027 1.787-0.885 0.008c-0.683 0.005-0.888 0.013-0.891 0.040-0.003 0.016-0.011 0.416-0.021 0.885l-0.016 0.853-1.76 0.027-0.027 1.947-5.192 0.008c-4.499 0.005-5.195 0-5.195-0.032z"></path>
<path fill="#cb64fc" style="fill: var(--color2, #cb64fc)" d="M10.747 30.363c0-0.021 0.024-0.048 0.053-0.056 0.051-0.016 0.053-0.040 0.053-0.917 0-0.664-0.008-0.907-0.032-0.931s-0.261-0.032-0.907-0.032h-0.875v-1.787h-1.787v-0.875c0-0.645-0.008-0.883-0.032-0.907s-0.261-0.032-0.907-0.032h-0.875v-1.784c0-1.963 0.013-1.816-0.163-1.816h-0.077l-0.005-0.805-0.008-0.808-0.747-0.008c-0.555-0.005-0.749-0.013-0.765-0.040-0.024-0.037-0.029-1.629-0.005-1.72l0.016-0.061 1.643 0.003c1.021 0.003 1.645-0.005 1.656-0.021 0.008-0.016 0.011-0.416 0.003-0.891l-0.013-0.861-1.637-0.008c-1.272-0.005-1.645-0.013-1.661-0.040-0.011-0.016-0.021-1.611-0.021-3.539v-3.507l1.792 0.016-0.008-0.115c-0.003-0.064-0.005-0.891-0.003-1.84 0.005-1.517 0.011-1.728 0.045-1.728 0.021 0 0.040 0.019 0.040 0.040 0 0.035 0.107 0.040 0.861 0.035l0.859-0.008 0.008-0.061c0.005-0.035-0.005-0.080-0.027-0.104-0.027-0.035-0.027-0.045 0-0.053 0.024-0.011 0.032-0.189 0.032-0.784v-0.771h1.28v0.688c0 0.381 0.008 0.781 0.016 0.893l0.019 0.205 0.883 0.005 0.883 0.008 0.027 3.573 0.883 0.008 0.885 0.005 0.008 0.883c0.011 0.744 0.016 0.883 0.051 0.904 0.024 0.016 0.435 0.027 0.973 0.027 0.515 0 0.96 0.008 0.995 0.016l0.059 0.016v3.408h3.573v-3.408l0.061-0.016c0.032-0.008 0.475-0.016 0.984-0.016 0.507 0 0.941-0.008 0.965-0.016 0.027-0.011 0.043-0.048 0.043-0.093 0-0.059-0.013-0.077-0.053-0.077-0.029 0-0.053-0.011-0.053-0.027 0-0.013 0.024-0.027 0.053-0.027 0.053 0 0.053-0.019 0.053-0.827 0-0.717 0.005-0.827 0.040-0.827 0.021 0 0.040 0.019 0.040 0.040 0 0.035 0.107 0.040 0.861 0.035l0.859-0.008 0.008-0.061c0.005-0.035-0.005-0.080-0.024-0.101-0.024-0.029-0.024-0.048-0.003-0.069 0.024-0.024 0.032-0.469 0.032-1.693v-1.661h1.787v-0.259c0.003-0.144 0.003-0.547 0-0.896l-0.003-0.632h1.309l0.005 0.888 0.008 0.885 0.888 0.008 0.885 0.005v1.597c0 0.877 0.008 1.685 0.016 1.797l0.019 0.205 0.883 0.005 0.883 0.008 0.008 3.44c0.003 1.893 0 3.48-0.008 3.528l-0.016 0.085h-1.635c-1.28 0-1.64 0.008-1.659 0.035-0.013 0.016-0.021 0.419-0.016 0.893l0.008 0.859h3.299l0.016 0.061c0.021 0.077 0.021 1.613 0 1.691l-0.016 0.061-0.752 0.005-0.749 0.008-0.008 0.808-0.005 0.805h-0.107c-0.056 0-0.112 0.016-0.125 0.035-0.011 0.016-0.027 0.824-0.035 1.792l-0.013 1.76-1.76 0.027-0.027 1.787-0.885 0.008c-0.683 0.005-0.888 0.013-0.891 0.040-0.003 0.016-0.011 0.416-0.021 0.885l-0.016 0.853-1.76 0.027-0.027 1.947-3.347 0.013 0.005-0.885 0.008-0.888 0.864-0.008c0.584-0.003 0.877-0.016 0.901-0.035 0.051-0.043 0.053-3.525 0.003-3.56-0.019-0.013-0.421-0.021-0.893-0.016l-0.861 0.008v1.675c0 0.92-0.008 1.731-0.016 1.8l-0.019 0.123h-3.565v1.787h-1.733c-1.488 0-1.733-0.005-1.733-0.037zM14.187 26.923c0-0.928 0.008-1.744 0.016-1.813l0.019-0.123h3.565l-0.005-0.885-0.008-0.888-1.768-0.008c-1.4-0.005-1.768 0-1.779 0.027-0.005 0.019-0.016 0.424-0.019 0.901l-0.008 0.867-1.787 0.027-0.008 1.757c-0.003 1.275 0.003 1.768 0.024 1.792 0.024 0.029 0.197 0.037 0.893 0.037h0.864v-1.691zM17.781 20.501l-0.008-0.888h-3.547l-0.008 0.888-0.005 0.885h3.573l-0.005-0.885zM12.387 17.8v-1.787h-3.573l-0.008 1.76c-0.003 0.968 0 1.776 0.008 1.795 0.008 0.027 0.381 0.032 1.792 0.027l1.781-0.008v-1.787zM23.187 17.8v-1.787h-3.573l-0.008 1.76c-0.003 0.968 0 1.776 0.008 1.795 0.008 0.027 0.381 0.032 1.792 0.027l1.781-0.008v-1.787zM8.795 9.723c0.003-1.52-0.005-2.677-0.019-2.691-0.021-0.021-1.733-0.029-1.755-0.008-0.005 0.005-0.008 0.792-0.008 1.752 0 1.064-0.011 1.76-0.027 1.784-0.021 0.035-0.16 0.043-0.899 0.053l-0.875 0.013-0.008 0.853c-0.003 0.469 0 0.869 0.008 0.885 0.008 0.029 0.376 0.035 1.792 0.029l1.781-0.008 0.008-2.664zM26.787 11.507v-0.88l-0.875-0.013c-0.739-0.011-0.877-0.019-0.899-0.053-0.016-0.024-0.027-0.736-0.027-1.792 0-1.133-0.008-1.755-0.027-1.76-0.013-0.003-0.413-0.003-0.885 0.005l-0.861 0.013-0.008 2.653c-0.003 1.459 0 2.669 0.008 2.688 0.008 0.027 0.381 0.032 1.792 0.027l1.781-0.008v-0.88z"></path>
</symbol>
<symbol id="icon-Wink" viewBox="0 0 32 32">
<path fill="#81007f" style="fill: var(--color1, #81007f)" d="M10.747 30.363c0-0.021 0.024-0.048 0.053-0.056 0.051-0.016 0.053-0.040 0.053-0.917 0-0.664-0.008-0.907-0.032-0.931s-0.261-0.032-0.907-0.032h-0.875v-1.787h-1.787v-0.875c0-0.645-0.008-0.883-0.032-0.907s-0.261-0.032-0.907-0.032h-0.875v-1.784c0-1.603-0.005-1.784-0.043-1.8-0.024-0.008-0.424-0.016-0.891-0.016h-0.851l-0.003-6.152v-6.155l1.792 0.016-0.008-0.115c-0.003-0.064-0.005-0.891-0.003-1.84 0.005-1.517 0.011-1.728 0.045-1.728 0.021 0 0.040 0.019 0.040 0.040 0 0.035 0.107 0.040 0.861 0.035l0.859-0.008 0.008-0.061c0.005-0.035-0.005-0.080-0.027-0.104-0.027-0.035-0.027-0.045 0-0.053 0.024-0.011 0.032-0.189 0.032-0.784v-0.771h1.28v0.688c0 0.381 0.008 0.781 0.016 0.893l0.019 0.205 0.883 0.005 0.883 0.008 0.027 3.573 0.888 0.008 0.885 0.005v0.691c0 0.821 0.019 1.088 0.075 1.109 0.053 0.021 7.533 0.019 7.589-0.003 0.027-0.011 0.043-0.048 0.043-0.093 0-0.059-0.013-0.077-0.053-0.077-0.029 0-0.053-0.011-0.053-0.027 0-0.013 0.024-0.027 0.053-0.027 0.053 0 0.053-0.019 0.053-0.827 0-0.717 0.005-0.827 0.040-0.827 0.021 0 0.040 0.019 0.040 0.040 0 0.035 0.107 0.040 0.861 0.035l0.859-0.008 0.008-0.061c0.005-0.035-0.005-0.080-0.024-0.101-0.024-0.029-0.024-0.048-0.003-0.069 0.024-0.024 0.032-0.469 0.032-1.693v-1.661h1.787v-0.259c0.003-0.144 0.003-0.547 0-0.896l-0.003-0.632h1.309l0.005 0.888 0.008 0.885 0.888 0.008 0.885 0.005v1.597c0 0.877 0.008 1.685 0.016 1.797l0.019 0.205 0.883 0.005 0.883 0.008v12.267l-0.867 0.008c-0.552 0.003-0.875 0.016-0.893 0.035-0.016 0.016-0.032 0.627-0.040 1.792l-0.013 1.765-1.76 0.027-0.027 1.787-0.885 0.008c-0.683 0.005-0.888 0.013-0.891 0.040-0.003 0.016-0.011 0.416-0.021 0.885l-0.016 0.853-1.76 0.027-0.027 1.947-5.192 0.008c-4.499 0.005-5.195 0-5.195-0.032z"></path>
<path fill="#cb64fc" style="fill: var(--color2, #cb64fc)" d="M10.747 30.363c0-0.021 0.024-0.048 0.053-0.056 0.051-0.016 0.053-0.040 0.053-0.917 0-0.664-0.008-0.907-0.032-0.931s-0.261-0.032-0.907-0.032h-0.875v-1.787h-1.787v-0.875c0-0.645-0.008-0.883-0.032-0.907s-0.261-0.032-0.907-0.032h-0.875v-1.784c0-1.963 0.013-1.816-0.163-1.816h-0.077l-0.005-0.805-0.008-0.808-0.747-0.008c-0.555-0.005-0.749-0.013-0.765-0.040-0.024-0.037-0.029-1.629-0.005-1.72l0.016-0.061 1.643 0.003c1.021 0.003 1.645-0.005 1.656-0.021 0.008-0.016 0.011-0.416 0.003-0.891l-0.013-0.861-1.637-0.008c-1.272-0.005-1.645-0.013-1.661-0.040-0.011-0.016-0.021-1.611-0.021-3.539v-3.507l1.792 0.016-0.008-0.115c-0.003-0.064-0.005-0.891-0.003-1.84 0.005-1.517 0.011-1.728 0.045-1.728 0.021 0 0.040 0.019 0.040 0.040 0 0.035 0.107 0.040 0.861 0.035l0.859-0.008 0.008-0.061c0.005-0.035-0.005-0.080-0.027-0.104-0.027-0.035-0.027-0.045 0-0.053 0.024-0.011 0.032-0.189 0.032-0.784v-0.771h1.28v0.688c0 0.381 0.008 0.781 0.016 0.893l0.019 0.205 0.883 0.005 0.883 0.008 0.027 3.573 0.883 0.008 0.885 0.005 0.008 0.883c0.011 0.744 0.016 0.883 0.051 0.904 0.024 0.016 0.435 0.027 0.973 0.027 0.515 0 0.96 0.008 0.995 0.016l0.059 0.016v3.408h3.573v-3.408l0.061-0.016c0.032-0.008 0.475-0.016 0.984-0.016 0.507 0 0.941-0.008 0.965-0.016 0.027-0.011 0.043-0.048 0.043-0.093 0-0.059-0.013-0.077-0.053-0.077-0.029 0-0.053-0.011-0.053-0.027 0-0.013 0.024-0.027 0.053-0.027 0.053 0 0.053-0.019 0.053-0.827 0-0.717 0.005-0.827 0.040-0.827 0.021 0 0.040 0.019 0.040 0.040 0 0.035 0.107 0.040 0.861 0.035l0.859-0.008 0.008-0.061c0.005-0.035-0.005-0.080-0.024-0.101-0.024-0.029-0.024-0.048-0.003-0.069 0.024-0.024 0.032-0.469 0.032-1.693v-1.661h1.787v-0.259c0.003-0.144 0.003-0.547 0-0.896l-0.003-0.632h1.309l0.005 0.888 0.008 0.885 0.888 0.008 0.885 0.005v1.597c0 0.877 0.008 1.685 0.016 1.797l0.019 0.205 0.883 0.005 0.883 0.008 0.008 3.44c0.003 1.893 0 3.48-0.008 3.528l-0.016 0.085h-1.635c-1.28 0-1.64 0.008-1.659 0.035-0.013 0.016-0.021 0.419-0.016 0.893l0.008 0.859h3.299l0.016 0.061c0.021 0.077 0.021 1.613 0 1.691l-0.016 0.061-0.752 0.005-0.749 0.008-0.008 0.808-0.005 0.805h-0.107c-0.056 0-0.112 0.016-0.125 0.035-0.011 0.016-0.027 0.824-0.035 1.792l-0.013 1.76-1.76 0.027-0.027 1.787-0.885 0.008c-0.683 0.005-0.888 0.013-0.891 0.040-0.003 0.016-0.011 0.416-0.021 0.885l-0.016 0.853-1.76 0.027-0.027 1.947-5.192 0.008c-4.499 0.005-5.195 0-5.195-0.032zM15.995 25.901l0.005-0.888h-3.6v0.875c0 0.483 0.008 0.885 0.019 0.893 0.008 0.011 0.816 0.016 1.792 0.013l1.776-0.008 0.008-0.885zM19.595 25.901l0.005-0.888h-1.787v0.875c0 0.483 0.008 0.885 0.019 0.893 0.011 0.011 0.408 0.016 0.885 0.013l0.869-0.008 0.008-0.885zM12.395 24.101l-0.008-0.888h-1.76l-0.013 0.853c-0.008 0.469-0.008 0.869-0.003 0.888 0.005 0.024 0.211 0.032 0.899 0.032h0.891l-0.005-0.885zM17.787 23.288c0-0.936 0.008-1.725 0.016-1.757s-0.003-0.075-0.029-0.099c-0.037-0.037-0.216-0.043-1.715-0.045-0.92 0-1.712 0.008-1.76 0.016l-0.085 0.019 0.005 0.883 0.008 0.883 1.76 0.027 0.008 0.888 0.005 0.885h1.787v-1.699zM21.381 24.101l-0.008-0.888h-1.76l-0.008 0.888-0.005 0.885h1.787l-0.005-0.885zM12.387 17.8v-1.787h-1.76l-0.013 0.872c-0.008 0.477-0.024 0.88-0.035 0.893-0.013 0.011-0.416 0.027-0.893 0.035l-0.872 0.013-0.008 0.853c-0.003 0.469 0 0.869 0.008 0.885 0.008 0.029 0.376 0.035 1.792 0.029l1.781-0.008v-1.787zM23.187 18.707v-0.88h-3.573l-0.008 0.853c-0.003 0.469 0 0.869 0.008 0.885 0.008 0.029 0.376 0.035 1.792 0.029l1.781-0.008v-0.88zM8.795 9.723c0.003-1.52-0.005-2.677-0.019-2.691-0.021-0.021-1.733-0.029-1.755-0.008-0.005 0.005-0.008 0.792-0.008 1.752 0 1.064-0.011 1.76-0.027 1.784-0.021 0.035-0.16 0.043-0.899 0.053l-0.875 0.013-0.008 0.853c-0.003 0.469 0 0.869 0.008 0.885 0.008 0.029 0.376 0.035 1.792 0.029l1.781-0.008 0.008-2.664zM26.787 11.507v-0.88l-0.875-0.013c-0.739-0.011-0.877-0.019-0.899-0.053-0.016-0.024-0.027-0.736-0.027-1.792 0-1.133-0.008-1.755-0.027-1.76-0.013-0.003-0.413-0.003-0.885 0.005l-0.861 0.013-0.008 2.653c-0.003 1.459 0 2.669 0.008 2.688 0.008 0.027 0.381 0.032 1.792 0.027l1.781-0.008v-0.88z"></path>
</symbol>
<symbol id="icon-Tongue" viewBox="0 0 32 32">
<path fill="#81007f" style="fill: var(--color1, #81007f)" d="M10.747 30.363c0-0.021 0.024-0.048 0.053-0.056 0.051-0.016 0.053-0.040 0.053-0.917 0-0.664-0.008-0.907-0.032-0.931s-0.261-0.032-0.907-0.032h-0.875v-1.787h-1.787v-0.875c0-0.645-0.008-0.883-0.032-0.907s-0.261-0.032-0.907-0.032h-0.875v-1.784c0-1.603-0.005-1.784-0.043-1.8-0.024-0.008-0.424-0.016-0.891-0.016h-0.851l-0.003-6.152v-6.155l1.792 0.016-0.008-0.115c-0.003-0.064-0.005-0.891-0.003-1.84 0.005-1.517 0.011-1.728 0.045-1.728 0.021 0 0.040 0.019 0.040 0.040 0 0.035 0.107 0.040 0.861 0.035l0.859-0.008 0.008-0.061c0.005-0.035-0.005-0.080-0.027-0.104-0.027-0.035-0.027-0.045 0-0.053 0.024-0.011 0.032-0.189 0.032-0.784v-0.771h1.28v0.688c0 0.381 0.008 0.781 0.016 0.893l0.019 0.205 0.883 0.005 0.883 0.008 0.027 3.573 0.888 0.008 0.885 0.005v0.691c0 0.821 0.019 1.088 0.075 1.109 0.053 0.021 7.533 0.019 7.589-0.003 0.027-0.011 0.043-0.048 0.043-0.093 0-0.059-0.013-0.077-0.053-0.077-0.029 0-0.053-0.011-0.053-0.027 0-0.013 0.024-0.027 0.053-0.027 0.053 0 0.053-0.019 0.053-0.827 0-0.717 0.005-0.827 0.040-0.827 0.021 0 0.040 0.019 0.040 0.040 0 0.035 0.107 0.040 0.861 0.035l0.859-0.008 0.008-0.061c0.005-0.035-0.005-0.080-0.024-0.101-0.024-0.029-0.024-0.048-0.003-0.069 0.024-0.024 0.032-0.469 0.032-1.693v-1.661h1.787v-0.259c0.003-0.144 0.003-0.547 0-0.896l-0.003-0.632h1.309l0.005 0.888 0.008 0.885 0.888 0.008 0.885 0.005v1.597c0 0.877 0.008 1.685 0.016 1.797l0.019 0.205 0.883 0.005 0.883 0.008v12.267l-0.867 0.008c-0.552 0.003-0.875 0.016-0.893 0.035-0.016 0.016-0.032 0.627-0.040 1.792l-0.013 1.765-1.76 0.027-0.027 1.787-0.885 0.008c-0.683 0.005-0.888 0.013-0.891 0.040-0.003 0.016-0.011 0.416-0.021 0.885l-0.016 0.853-1.76 0.027-0.027 1.947-5.192 0.008c-4.499 0.005-5.195 0-5.195-0.032z"></path>
<path fill="#cb64fc" style="fill: var(--color2, #cb64fc)" d="M10.747 30.363c0-0.021 0.024-0.048 0.053-0.056 0.051-0.016 0.053-0.040 0.053-0.917 0-0.664-0.008-0.907-0.032-0.931s-0.261-0.032-0.907-0.032h-0.875v-1.787h-1.787v-0.875c0-0.645-0.008-0.883-0.032-0.907s-0.261-0.032-0.907-0.032h-0.875v-1.784c0-1.963 0.013-1.816-0.163-1.816h-0.077l-0.005-0.805-0.008-0.808-0.747-0.008c-0.555-0.005-0.749-0.013-0.765-0.040-0.024-0.037-0.029-1.629-0.005-1.72l0.016-0.061 1.643 0.003c1.021 0.003 1.645-0.005 1.656-0.021 0.008-0.016 0.011-0.416 0.003-0.891l-0.013-0.861-1.637-0.008c-1.272-0.005-1.645-0.013-1.661-0.040-0.011-0.016-0.021-1.611-0.021-3.539v-3.507l1.792 0.016-0.008-0.115c-0.003-0.064-0.005-0.891-0.003-1.84 0.005-1.517 0.011-1.728 0.045-1.728 0.021 0 0.040 0.019 0.040 0.040 0 0.035 0.107 0.040 0.861 0.035l0.859-0.008 0.008-0.061c0.005-0.035-0.005-0.080-0.027-0.104-0.027-0.035-0.027-0.045 0-0.053 0.024-0.011 0.032-0.189 0.032-0.784v-0.771h1.28v0.688c0 0.381 0.008 0.781 0.016 0.893l0.019 0.205 0.883 0.005 0.883 0.008 0.027 3.573 0.883 0.008 0.885 0.005 0.008 0.883c0.011 0.744 0.016 0.883 0.051 0.904 0.024 0.016 0.435 0.027 0.973 0.027 0.515 0 0.96 0.008 0.995 0.016l0.059 0.016v3.408h3.573v-3.408l0.061-0.016c0.032-0.008 0.475-0.016 0.984-0.016 0.507 0 0.941-0.008 0.965-0.016 0.027-0.011 0.043-0.048 0.043-0.093 0-0.059-0.013-0.077-0.053-0.077-0.029 0-0.053-0.011-0.053-0.027 0-0.013 0.024-0.027 0.053-0.027 0.053 0 0.053-0.019 0.053-0.827 0-0.717 0.005-0.827 0.040-0.827 0.021 0 0.040 0.019 0.040 0.040 0 0.035 0.107 0.040 0.861 0.035l0.859-0.008 0.008-0.061c0.005-0.035-0.005-0.080-0.024-0.101-0.024-0.029-0.024-0.048-0.003-0.069 0.024-0.024 0.032-0.469 0.032-1.693v-1.661h1.787v-0.259c0.003-0.144 0.003-0.547 0-0.896l-0.003-0.632h1.309l0.005 0.888 0.008 0.885 0.888 0.008 0.885 0.005v1.597c0 0.877 0.008 1.685 0.016 1.797l0.019 0.205 0.883 0.005 0.883 0.008 0.008 3.44c0.003 1.893 0 3.48-0.008 3.528l-0.016 0.085h-1.635c-1.28 0-1.64 0.008-1.659 0.035-0.013 0.016-0.021 0.419-0.016 0.893l0.008 0.859h3.299l0.016 0.061c0.021 0.077 0.021 1.613 0 1.691l-0.016 0.061-0.752 0.005-0.749 0.008-0.008 0.808-0.005 0.805h-0.107c-0.056 0-0.112 0.016-0.125 0.035-0.011 0.016-0.027 0.824-0.035 1.792l-0.013 1.76-1.76 0.027-0.027 1.787-0.885 0.008c-0.683 0.005-0.888 0.013-0.891 0.040-0.003 0.016-0.011 0.416-0.021 0.885l-0.016 0.853-1.76 0.027-0.027 1.947-3.347 0.013v-1.731c0-1.056 0.011-1.76 0.027-1.8l0.024-0.069 0.875-0.005 0.875-0.008 0.008-0.885 0.005-0.888h-0.864c-0.757 0-0.872-0.005-0.909-0.043s-0.040-0.224-0.040-1.792c0.003-1.403-0.003-1.752-0.032-1.768-0.040-0.027-3.331-0.032-3.456-0.008l-0.085 0.019 0.005 0.883 0.008 0.883 1.76 0.027 0.008 0.864c0.005 0.613-0.003 0.875-0.024 0.899-0.024 0.032-0.336 0.037-1.8 0.037h-1.771l0.005 0.888 0.008 0.885 0.867 0.008c0.776 0.005 0.869 0.011 0.901 0.051 0.024 0.035 0.032 0.437 0.032 1.8v1.755h-1.733c-1.488 0-1.733-0.005-1.733-0.037zM12.395 24.101l-0.008-0.888h-1.76l-0.013 0.853c-0.008 0.469-0.008 0.869-0.003 0.888 0.005 0.024 0.211 0.032 0.899 0.032h0.891l-0.005-0.885zM21.381 24.101l-0.008-0.888h-1.76l-0.008 0.888-0.005 0.885h1.787l-0.005-0.885zM12.387 17.8v-1.787h-1.76l-0.013 0.872c-0.008 0.477-0.024 0.88-0.035 0.893-0.013 0.011-0.416 0.027-0.893 0.035l-0.872 0.013-0.008 0.853c-0.003 0.469 0 0.869 0.008 0.885 0.008 0.029 0.376 0.035 1.792 0.029l1.781-0.008v-1.787zM23.187 18.707v-0.88l-0.872-0.013c-0.477-0.008-0.88-0.024-0.893-0.035-0.011-0.013-0.027-0.416-0.035-0.893l-0.013-0.872h-1.76l-0.008 1.76c-0.003 0.968 0 1.776 0.008 1.795 0.008 0.027 0.381 0.032 1.792 0.027l1.781-0.008v-0.88zM8.795 9.723c0.003-1.52-0.005-2.677-0.019-2.691-0.021-0.021-1.733-0.029-1.755-0.008-0.005 0.005-0.008 0.792-0.008 1.752 0 1.064-0.011 1.76-0.027 1.784-0.021 0.035-0.16 0.043-0.899 0.053l-0.875 0.013-0.008 0.853c-0.003 0.469 0 0.869 0.008 0.885 0.008 0.029 0.376 0.035 1.792 0.029l1.781-0.008 0.008-2.664zM26.787 11.507v-0.88l-0.875-0.013c-0.739-0.011-0.877-0.019-0.899-0.053-0.016-0.024-0.027-0.736-0.027-1.792 0-1.133-0.008-1.755-0.027-1.76-0.013-0.003-0.413-0.003-0.885 0.005l-0.861 0.013-0.008 2.653c-0.003 1.459 0 2.669 0.008 2.688 0.008 0.027 0.381 0.032 1.792 0.027l1.781-0.008v-0.88z"></path>
</symbol>
<symbol id="icon-Kiss" viewBox="0 0 32 32">
<path fill="#a80058" style="fill: var(--color11, #a80058)" d="M10.747 30.363c0-0.021 0.024-0.048 0.053-0.056 0.051-0.016 0.053-0.040 0.053-0.917 0-0.664-0.008-0.907-0.032-0.931s-0.261-0.032-0.907-0.032h-0.875v-1.787h-1.787v-0.875c0-0.645-0.008-0.883-0.032-0.907s-0.261-0.032-0.907-0.032h-0.875v-1.784c0-1.603-0.005-1.784-0.043-1.8-0.024-0.008-0.424-0.016-0.891-0.016h-0.851l-0.003-6.152v-6.155l1.792 0.016-0.008-0.115c-0.003-0.064-0.005-0.891-0.003-1.84 0.005-1.517 0.011-1.728 0.045-1.728 0.021 0 0.040 0.019 0.040 0.040 0 0.035 0.107 0.040 0.861 0.035l0.859-0.008 0.008-0.061c0.005-0.035-0.005-0.080-0.027-0.104-0.027-0.035-0.027-0.045 0-0.053 0.024-0.011 0.032-0.189 0.032-0.784v-0.771h1.28v0.688c0 0.381 0.008 0.781 0.016 0.893l0.019 0.205 0.883 0.005 0.883 0.008 0.027 3.573 0.888 0.008 0.885 0.005v0.691c0 0.821 0.019 1.088 0.075 1.109 0.053 0.021 7.533 0.019 7.589-0.003 0.027-0.011 0.043-0.048 0.043-0.093 0-0.059-0.013-0.077-0.053-0.077-0.029 0-0.053-0.011-0.053-0.027 0-0.013 0.024-0.027 0.053-0.027 0.053 0 0.053-0.019 0.053-0.827 0-0.717 0.005-0.827 0.040-0.827 0.021 0 0.040 0.019 0.040 0.040 0 0.035 0.107 0.040 0.861 0.035l0.859-0.008 0.008-0.061c0.005-0.035-0.005-0.080-0.024-0.101-0.024-0.029-0.024-0.048-0.003-0.069 0.024-0.024 0.032-0.469 0.032-1.693v-1.661h1.787v-0.259c0.003-0.144 0.003-0.547 0-0.896l-0.003-0.632h1.309l0.005 0.888 0.008 0.885 0.888 0.008 0.885 0.005v1.597c0 0.877 0.008 1.685 0.016 1.797l0.019 0.205 0.883 0.005 0.883 0.008v12.267l-0.867 0.008c-0.768 0.005-0.869 0.011-0.899 0.051-0.027 0.032-0.035 0.453-0.035 1.779 0 0.952-0.011 1.744-0.021 1.755s-0.411 0.024-0.885 0.027l-0.867 0.008-0.027 1.787-0.885 0.008c-0.683 0.005-0.888 0.013-0.891 0.040-0.003 0.016-0.011 0.416-0.021 0.885l-0.016 0.853-1.76 0.027-0.027 1.947-5.192 0.008c-4.499 0.005-5.195 0-5.195-0.032z"></path>
<path fill="#a129b0" style="fill: var(--color12, #a129b0)" d="M10.747 30.363c0-0.021 0.024-0.048 0.053-0.056 0.051-0.016 0.053-0.040 0.053-0.917 0-0.664-0.008-0.907-0.032-0.931s-0.261-0.032-0.907-0.032h-0.875v-1.787h-1.787v-0.875c0-0.645-0.008-0.883-0.032-0.907s-0.261-0.032-0.907-0.032h-0.875v-1.784c0-1.603-0.005-1.784-0.043-1.8-0.024-0.008-0.424-0.016-0.891-0.016h-0.851l-0.003-6.152v-6.155l1.792 0.016-0.008-0.115c-0.003-0.064-0.005-0.891-0.003-1.84 0.005-1.517 0.011-1.728 0.045-1.728 0.021 0 0.040 0.019 0.040 0.040 0 0.035 0.107 0.040 0.861 0.035l0.859-0.008 0.008-0.061c0.005-0.035-0.005-0.080-0.027-0.104-0.027-0.035-0.027-0.045 0-0.053 0.024-0.011 0.032-0.189 0.032-0.784v-0.771h1.28v0.688c0 0.381 0.008 0.781 0.016 0.893l0.019 0.205 0.883 0.005 0.883 0.008 0.027 3.573 0.888 0.008 0.885 0.005v0.691c0 0.821 0.019 1.088 0.075 1.109 0.053 0.021 7.533 0.019 7.589-0.003 0.027-0.011 0.043-0.048 0.043-0.093 0-0.059-0.013-0.077-0.053-0.077-0.029 0-0.053-0.011-0.053-0.027 0-0.013 0.024-0.027 0.053-0.027 0.053 0 0.053-0.019 0.053-0.827 0-0.717 0.005-0.827 0.040-0.827 0.021 0 0.040 0.019 0.040 0.040 0 0.035 0.107 0.040 0.861 0.035l0.859-0.008 0.008-0.061c0.005-0.035-0.005-0.080-0.024-0.101-0.024-0.029-0.024-0.048-0.003-0.069 0.024-0.024 0.032-0.469 0.032-1.693v-1.661h1.787v-0.259c0.003-0.144 0.003-0.547 0-0.896l-0.003-0.632h1.309l0.005 0.888 0.008 0.885 0.888 0.008 0.885 0.005v1.597c0 0.877 0.008 1.685 0.016 1.797l0.019 0.205 0.883 0.005 0.883 0.008v12.267l-1.76 0.027-0.053 0.16-1.608-0.008c-1.072-0.003-1.624 0.003-1.659 0.021-0.051 0.027-0.053 0.069-0.059 0.901l-0.008 0.872-0.867 0.008c-0.792 0.005-0.869 0.003-0.899-0.040-0.027-0.035-0.035-0.256-0.035-0.891v-0.843l-0.083-0.019c-0.045-0.008-0.851-0.016-1.787-0.016-1.496 0-1.704 0.005-1.704 0.040 0 0.021-0.008 0.040-0.019 0.040-0.019 0-0.021 2.992-0.003 3.373l0.008 0.16 1.787 0.027 0.027 1.76 1.76 0.027 0.008 0.805 0.005 0.805-0.227 0.016-0.027 1.947-5.192 0.008c-4.499 0.005-5.195 0-5.195-0.032z"></path>
<path fill="#cd66ff" style="fill: var(--color5, #cd66ff)" d="M10.747 30.363c0-0.021 0.024-0.048 0.053-0.056 0.051-0.016 0.053-0.040 0.053-0.917 0-0.664-0.008-0.907-0.032-0.931s-0.261-0.032-0.907-0.032h-0.875v-1.787h-1.787v-0.875c0-0.645-0.008-0.883-0.032-0.907s-0.261-0.032-0.907-0.032h-0.875v-1.784c0-1.963 0.013-1.816-0.163-1.816h-0.077l-0.005-0.805-0.008-0.808-0.747-0.008c-0.555-0.005-0.749-0.013-0.765-0.040-0.024-0.037-0.029-1.629-0.005-1.72l0.016-0.061 1.643 0.003c1.021 0.003 1.645-0.005 1.656-0.021 0.008-0.016 0.011-0.416 0.003-0.891l-0.013-0.861-1.637-0.008c-1.272-0.005-1.645-0.013-1.661-0.040-0.011-0.016-0.021-1.611-0.021-3.539v-3.507l1.792 0.016-0.008-0.115c-0.003-0.064-0.005-0.891-0.003-1.84 0.005-1.517 0.011-1.728 0.045-1.728 0.021 0 0.040 0.019 0.040 0.040 0 0.035 0.107 0.040 0.861 0.035l0.859-0.008 0.008-0.061c0.005-0.035-0.005-0.080-0.027-0.104-0.027-0.035-0.027-0.045 0-0.053 0.024-0.011 0.032-0.189 0.032-0.784v-0.771h1.28v0.688c0 0.381 0.008 0.781 0.016 0.893l0.019 0.205 0.883 0.005 0.883 0.008 0.027 3.573 0.883 0.008 0.885 0.005 0.008 0.883c0.011 0.744 0.016 0.883 0.051 0.904 0.024 0.016 0.435 0.027 0.973 0.027 0.515 0 0.96 0.008 0.995 0.016l0.059 0.016v3.408h3.573v-3.408l0.061-0.016c0.032-0.008 0.475-0.016 0.984-0.016 0.507 0 0.941-0.008 0.965-0.016 0.027-0.011 0.043-0.048 0.043-0.093 0-0.059-0.013-0.077-0.053-0.077-0.029 0-0.053-0.011-0.053-0.027 0-0.013 0.024-0.027 0.053-0.027 0.053 0 0.053-0.019 0.053-0.827 0-0.717 0.005-0.827 0.040-0.827 0.021 0 0.040 0.019 0.040 0.040 0 0.035 0.107 0.040 0.861 0.035l0.859-0.008 0.008-0.061c0.005-0.035-0.005-0.080-0.024-0.101-0.024-0.029-0.024-0.048-0.003-0.069 0.024-0.024 0.032-0.469 0.032-1.693v-1.661h1.787v-0.259c0.003-0.144 0.003-0.547 0-0.896l-0.003-0.632h1.309l0.005 0.888 0.008 0.885 0.888 0.008 0.885 0.005v1.597c0 0.877 0.008 1.685 0.016 1.797l0.019 0.205 0.883 0.005 0.883 0.008 0.008 3.44c0.003 1.893 0 3.48-0.008 3.528l-0.016 0.085h-1.635c-1.28 0-1.64 0.008-1.659 0.035-0.013 0.016-0.021 0.419-0.016 0.893l0.008 0.859h3.299l0.016 0.061c0.021 0.077 0.021 1.613 0 1.691l-0.016 0.061-0.752 0.005-0.749 0.008-0.008 0.805-0.005 0.805-0.115 0.008c-0.099 0.008-0.115 0.019-0.139 0.088l-0.027 0.080-1.608-0.008c-1.072-0.003-1.624 0.003-1.659 0.021-0.051 0.027-0.053 0.069-0.059 0.901l-0.008 0.872-0.867 0.008c-0.792 0.005-0.869 0.003-0.899-0.040-0.027-0.035-0.035-0.256-0.035-0.891v-0.843l-0.083-0.019c-0.045-0.008-0.851-0.016-1.784-0.016-1.336 0-1.704 0.008-1.715 0.035s-0.016 0.027-0.016 0c-0.003-0.027-0.363-0.035-1.707-0.035-0.936 0-1.741 0.008-1.787 0.016l-0.083 0.019 0.005 0.883 0.008 0.883 1.768 0.008c0.971 0.003 1.768 0.008 1.771 0.013 0.003 0.003 0.013 0.397 0.021 0.877 0.013 0.805 0.011 0.872-0.032 0.899-0.032 0.021-0.587 0.029-1.795 0.029h-1.747v1.701c0 0.933-0.008 1.723-0.016 1.755-0.008 0.035 0.003 0.075 0.029 0.101 0.040 0.037 0.2 0.043 1.76 0.043 0.944 0 1.733-0.008 1.757-0.016 0.037-0.016 0.043-0.192 0.045-1.728 0.003-0.939 0.011-1.739 0.021-1.776l0.019-0.067h1.757l0.027 1.76 1.76 0.027 0.008 0.805 0.005 0.805-0.227 0.016-0.027 1.947-5.192 0.008c-4.499 0.005-5.195 0-5.195-0.032zM12.387 17.8v-1.787h-1.76l-0.013 0.872c-0.008 0.477-0.024 0.88-0.035 0.893-0.013 0.011-0.416 0.027-0.893 0.035l-0.872 0.013-0.008 0.853c-0.003 0.469 0 0.869 0.008 0.885 0.008 0.029 0.376 0.035 1.792 0.029l1.781-0.008v-1.787zM23.187 18.707v-0.88l-0.872-0.013c-0.477-0.008-0.88-0.024-0.893-0.035-0.011-0.013-0.027-0.416-0.035-0.893l-0.013-0.872h-1.76l-0.008 1.76c-0.003 0.968 0 1.776 0.008 1.795 0.008 0.027 0.381 0.032 1.792 0.027l1.781-0.008v-0.88zM8.795 9.723c0.003-1.52-0.005-2.677-0.019-2.691-0.021-0.021-1.733-0.029-1.755-0.008-0.005 0.005-0.008 0.792-0.008 1.752 0 1.064-0.011 1.76-0.027 1.784-0.021 0.035-0.16 0.043-0.899 0.053l-0.875 0.013-0.008 0.853c-0.003 0.469 0 0.869 0.008 0.885 0.008 0.029 0.376 0.035 1.792 0.029l1.781-0.008 0.008-2.664zM26.787 11.507v-0.88l-0.875-0.013c-0.739-0.011-0.877-0.019-0.899-0.053-0.016-0.024-0.027-0.736-0.027-1.792 0-1.133-0.008-1.755-0.027-1.76-0.013-0.003-0.413-0.003-0.885 0.005l-0.861 0.013-0.008 2.653c-0.003 1.459 0 2.669 0.008 2.688 0.008 0.027 0.381 0.032 1.792 0.027l1.781-0.008v-0.88z"></path>
</symbol>
<symbol id="icon-Happy" viewBox="0 0 32 32">
<path fill="#81007f" style="fill: var(--color1, #81007f)" d="M10.747 30.363c0-0.021 0.024-0.048 0.053-0.056 0.051-0.016 0.053-0.040 0.053-0.917 0-0.664-0.008-0.907-0.032-0.931s-0.261-0.032-0.907-0.032h-0.875v-1.787h-1.787v-0.875c0-0.645-0.008-0.883-0.032-0.907s-0.261-0.032-0.907-0.032h-0.875v-1.784c0-1.603-0.005-1.784-0.043-1.8-0.024-0.008-0.424-0.016-0.891-0.016h-0.851l-0.003-6.152v-6.155l1.792 0.016-0.008-0.115c-0.003-0.064-0.005-0.891-0.003-1.84 0.005-1.517 0.011-1.728 0.045-1.728 0.021 0 0.040 0.019 0.040 0.040 0 0.035 0.107 0.040 0.861 0.035l0.859-0.008 0.008-0.061c0.005-0.035-0.005-0.080-0.027-0.104-0.027-0.035-0.027-0.045 0-0.053 0.024-0.011 0.032-0.189 0.032-0.784v-0.771h1.28v0.688c0 0.381 0.008 0.781 0.016 0.893l0.019 0.205 0.883 0.005 0.883 0.008 0.027 3.573 0.888 0.008 0.885 0.005v0.691c0 0.821 0.019 1.088 0.075 1.109 0.053 0.021 7.533 0.019 7.589-0.003 0.027-0.011 0.043-0.048 0.043-0.093 0-0.059-0.013-0.077-0.053-0.077-0.029 0-0.053-0.011-0.053-0.027 0-0.013 0.024-0.027 0.053-0.027 0.053 0 0.053-0.019 0.053-0.827 0-0.717 0.005-0.827 0.040-0.827 0.021 0 0.040 0.019 0.040 0.040 0 0.035 0.107 0.040 0.861 0.035l0.859-0.008 0.008-0.061c0.005-0.035-0.005-0.080-0.024-0.101-0.024-0.029-0.024-0.048-0.003-0.069 0.024-0.024 0.032-0.469 0.032-1.693v-1.661h1.787v-0.259c0.003-0.144 0.003-0.547 0-0.896l-0.003-0.632h1.309l0.005 0.888 0.008 0.885 0.888 0.008 0.885 0.005v1.597c0 0.877 0.008 1.685 0.016 1.797l0.019 0.205 0.883 0.005 0.883 0.008v12.267l-0.867 0.008c-0.552 0.003-0.875 0.016-0.893 0.035-0.016 0.016-0.032 0.627-0.040 1.792l-0.013 1.765-1.76 0.027-0.027 1.787-0.885 0.008c-0.683 0.005-0.888 0.013-0.891 0.040-0.003 0.016-0.011 0.416-0.021 0.885l-0.016 0.853-1.76 0.027-0.027 1.947-5.192 0.008c-4.499 0.005-5.195 0-5.195-0.032z"></path>
<path fill="#cb64fc" style="fill: var(--color2, #cb64fc)" d="M10.747 30.363c0-0.021 0.024-0.048 0.053-0.056 0.051-0.016 0.053-0.040 0.053-0.917 0-0.664-0.008-0.907-0.032-0.931s-0.261-0.032-0.907-0.032h-0.875v-1.787h-1.787v-0.875c0-0.645-0.008-0.883-0.032-0.907s-0.261-0.032-0.907-0.032h-0.875v-1.784c0-1.963 0.013-1.816-0.163-1.816h-0.077l-0.005-0.805-0.008-0.808-0.747-0.008c-0.555-0.005-0.749-0.013-0.765-0.040-0.024-0.037-0.029-1.629-0.005-1.72l0.016-0.061 1.643 0.003c1.021 0.003 1.645-0.005 1.656-0.021 0.008-0.016 0.011-0.416 0.003-0.891l-0.013-0.861-1.637-0.008c-1.272-0.005-1.645-0.013-1.661-0.040-0.011-0.016-0.021-1.611-0.021-3.539v-3.507l1.792 0.016-0.008-0.115c-0.003-0.064-0.005-0.891-0.003-1.84 0.005-1.517 0.011-1.728 0.045-1.728 0.021 0 0.040 0.019 0.040 0.040 0 0.035 0.107 0.040 0.861 0.035l0.859-0.008 0.008-0.061c0.005-0.035-0.005-0.080-0.027-0.104-0.027-0.035-0.027-0.045 0-0.053 0.024-0.011 0.032-0.189 0.032-0.784v-0.771h1.28v0.688c0 0.381 0.008 0.781 0.016 0.893l0.019 0.205 0.883 0.005 0.883 0.008 0.027 3.573 0.883 0.008 0.885 0.005 0.008 0.883c0.011 0.744 0.016 0.883 0.051 0.904 0.024 0.016 0.435 0.027 0.973 0.027 0.515 0 0.96 0.008 0.995 0.016l0.059 0.016v3.408h3.573v-3.408l0.061-0.016c0.032-0.008 0.475-0.016 0.984-0.016 0.507 0 0.941-0.008 0.965-0.016 0.027-0.011 0.043-0.048 0.043-0.093 0-0.059-0.013-0.077-0.053-0.077-0.029 0-0.053-0.011-0.053-0.027 0-0.013 0.024-0.027 0.053-0.027 0.053 0 0.053-0.019 0.053-0.827 0-0.717 0.005-0.827 0.040-0.827 0.021 0 0.040 0.019 0.040 0.040 0 0.035 0.107 0.040 0.861 0.035l0.859-0.008 0.008-0.061c0.005-0.035-0.005-0.080-0.024-0.101-0.024-0.029-0.024-0.048-0.003-0.069 0.024-0.024 0.032-0.469 0.032-1.693v-1.661h1.787v-0.259c0.003-0.144 0.003-0.547 0-0.896l-0.003-0.632h1.309l0.005 0.888 0.008 0.885 0.888 0.008 0.885 0.005v1.597c0 0.877 0.008 1.685 0.016 1.797l0.019 0.205 0.883 0.005 0.883 0.008 0.008 3.44c0.003 1.893 0 3.48-0.008 3.528l-0.016 0.085h-1.635c-1.28 0-1.64 0.008-1.659 0.035-0.013 0.016-0.021 0.419-0.016 0.893l0.008 0.859h3.299l0.016 0.061c0.021 0.077 0.021 1.613 0 1.691l-0.016 0.061-0.752 0.005-0.749 0.008-0.008 0.808-0.005 0.805h-0.107c-0.056 0-0.112 0.016-0.125 0.035-0.011 0.016-0.027 0.824-0.035 1.792l-0.013 1.76-1.76 0.027-0.027 1.787-0.885 0.008c-0.683 0.005-0.888 0.013-0.891 0.040-0.003 0.016-0.011 0.416-0.021 0.885l-0.016 0.853-1.76 0.027-0.027 1.947-5.192 0.008c-4.499 0.005-5.195 0-5.195-0.032zM15.995 25.901l0.005-0.888h-3.6v0.875c0 0.483 0.008 0.885 0.019 0.893 0.008 0.011 0.816 0.016 1.792 0.013l1.776-0.008 0.008-0.885zM19.595 25.901l0.005-0.888h-1.787v0.875c0 0.483 0.008 0.885 0.019 0.893 0.011 0.011 0.408 0.016 0.885 0.013l0.869-0.008 0.008-0.885zM12.395 24.101l-0.008-0.888h-1.76l-0.013 0.853c-0.008 0.469-0.008 0.869-0.003 0.888 0.005 0.024 0.211 0.032 0.899 0.032h0.891l-0.005-0.885zM17.787 23.288c0-0.936 0.008-1.725 0.016-1.757s-0.003-0.075-0.029-0.099c-0.037-0.037-0.216-0.043-1.715-0.045-0.92 0-1.712 0.008-1.76 0.016l-0.085 0.019 0.005 0.883 0.008 0.883 1.76 0.027 0.008 0.888 0.005 0.885h1.787v-1.699zM21.381 24.101l-0.008-0.888h-1.76l-0.008 0.888-0.005 0.885h1.787l-0.005-0.885zM12.387 17.8v-1.787h-1.76l-0.013 0.872c-0.008 0.477-0.024 0.88-0.035 0.893-0.013 0.011-0.416 0.027-0.893 0.035l-0.872 0.013-0.008 0.853c-0.003 0.469 0 0.869 0.008 0.885 0.008 0.029 0.376 0.035 1.792 0.029l1.781-0.008v-1.787zM23.187 18.707v-0.88l-0.872-0.013c-0.477-0.008-0.88-0.024-0.893-0.035-0.011-0.013-0.027-0.416-0.035-0.893l-0.013-0.872h-1.76l-0.008 1.76c-0.003 0.968 0 1.776 0.008 1.795 0.008 0.027 0.381 0.032 1.792 0.027l1.781-0.008v-0.88zM8.795 9.723c0.003-1.52-0.005-2.677-0.019-2.691-0.021-0.021-1.733-0.029-1.755-0.008-0.005 0.005-0.008 0.792-0.008 1.752 0 1.064-0.011 1.76-0.027 1.784-0.021 0.035-0.16 0.043-0.899 0.053l-0.875 0.013-0.008 0.853c-0.003 0.469 0 0.869 0.008 0.885 0.008 0.029 0.376 0.035 1.792 0.029l1.781-0.008 0.008-2.664zM26.787 11.507v-0.88l-0.875-0.013c-0.739-0.011-0.877-0.019-0.899-0.053-0.016-0.024-0.027-0.736-0.027-1.792 0-1.133-0.008-1.755-0.027-1.76-0.013-0.003-0.413-0.003-0.885 0.005l-0.861 0.013-0.008 2.653c-0.003 1.459 0 2.669 0.008 2.688 0.008 0.027 0.381 0.032 1.792 0.027l1.781-0.008v-0.88z"></path>
</symbol>
</defs>
</svg>
